<?xml version="1.0" encoding="utf-8"?>
<!-- Generator: Adobe Illustrator 16.0.0, SVG Export Plug-In . SVG Version: 6.00 Build 0)  -->
<!DOCTYPE svg PUBLIC "-//W3C//DTD SVG 1.1//EN" "http://www.w3.org/Graphics/SVG/1.1/DTD/svg11.dtd">
<svg version="1.1" id="Layer_1" xmlns="http://www.w3.org/2000/svg" xmlns:xlink="http://www.w3.org/1999/xlink" x="0px" y="0px"
	 width="320px" height="80px" viewBox="0 0 320 80" enable-background="new 0 0 320 80" xml:space="preserve">
<g>
	<path fill="#FFFFFF" d="M13.874,51.652L51.758,13.79c-1.071-0.972-2.208-1.849-3.39-2.621L13.49,51.221
		C13.62,51.369,13.744,51.51,13.874,51.652 M10.986,47.846l36.966-36.944c-1.244-0.776-2.54-1.443-3.868-1.998L10.653,47.295
		C10.765,47.482,10.875,47.664,10.986,47.846 M8.747,43.391L43.495,8.665c-1.418-0.552-2.874-0.978-4.349-1.284L8.463,42.623
		C8.553,42.879,8.649,43.137,8.747,43.391 M7.295,38.154L38.25,7.215c-1.487-0.254-2.998-0.378-4.508-0.378h-0.01h-0.378
		L7.118,36.966C7.171,37.367,7.228,37.757,7.295,38.154 M6.976,31.779L31.872,6.898C29.94,7.033,28.021,7.375,26.15,7.92
		L7.206,29.676C7.104,30.375,7.023,31.078,6.976,31.779 M9.142,22.921L23.01,9.064c-2.993,1.301-5.796,3.18-8.243,5.623
		C12.323,17.134,10.445,19.933,9.142,22.921 M53.41,15.423L15.508,53.305c1.103,1.018,2.261,1.924,3.473,2.725l34.9-40.081
		C53.726,15.775,53.57,15.598,53.41,15.423 M56.333,19.195l-37.05,37.026c1.273,0.816,2.603,1.516,3.967,2.094L56.742,19.85
		C56.608,19.635,56.471,19.413,56.333,19.195 M58.611,23.611L23.703,58.5c1.451,0.588,2.948,1.041,4.464,1.355L58.953,24.5
		C58.846,24.206,58.731,23.908,58.611,23.611 M60.113,28.802l-31.217,31.2c1.665,0.303,3.35,0.445,5.032,0.432l26.395-30.306
		C60.259,29.682,60.193,29.242,60.113,28.802 M60.508,35.101l-25.31,25.292c1.981-0.105,3.957-0.436,5.882-0.98L60.292,37.35
		C60.392,36.603,60.468,35.853,60.508,35.101 M58.589,43.711L43.815,58.475c3.233-1.311,6.259-3.268,8.879-5.889
		C55.315,49.969,57.278,46.939,58.589,43.711"/>
	<path fill="#FFFFFF" d="M77.115,32.32v-9.646H80.9c1.984,0,3.479,0.386,4.485,1.159c1.004,0.772,1.506,1.919,1.506,3.442
		c0,0.746-0.129,1.431-0.391,2.047c-0.263,0.623-0.652,1.151-1.168,1.601c-0.521,0.442-1.159,0.79-1.929,1.035
		c-0.768,0.239-1.656,0.362-2.665,0.362H77.115L77.115,32.32z M77.115,34.834h2.625c0.476,0,0.831,0.062,1.07,0.187
		c0.235,0.125,0.458,0.329,0.662,0.613l6.632,9.129c0.298,0.488,0.765,0.73,1.396,0.73h3.069l-7.459-10.146
		c-0.334-0.475-0.715-0.835-1.142-1.088c0.986-0.226,1.871-0.555,2.648-0.994c0.777-0.44,1.438-0.972,1.979-1.599
		c0.543-0.623,0.95-1.328,1.238-2.11c0.284-0.786,0.427-1.631,0.427-2.532c0-1.084-0.182-2.062-0.55-2.937
		c-0.369-0.871-0.938-1.617-1.706-2.233c-0.764-0.619-1.737-1.094-2.913-1.418c-1.178-0.33-2.576-0.494-4.193-0.494h-7.226v25.549
		h3.442V34.835L77.115,34.834L77.115,34.834z M98.544,27.435h-3.177v11.52c0,1.021,0.129,1.954,0.383,2.797
		c0.257,0.844,0.645,1.564,1.149,2.16c0.513,0.596,1.146,1.053,1.902,1.381c0.756,0.324,1.626,0.494,2.616,0.494
		c1.263,0,2.377-0.266,3.354-0.795c0.973-0.529,1.853-1.23,2.64-2.096l0.249,1.939c0.118,0.443,0.403,0.662,0.856,0.662h1.894
		V27.435h-3.178v13.321c-0.688,0.783-1.442,1.396-2.27,1.836c-0.817,0.438-1.692,0.656-2.617,0.656
		c-1.274,0-2.225-0.373-2.856-1.125c-0.631-0.746-0.945-1.803-0.945-3.172V27.435L98.544,27.435z M125.981,30.412l0.715-1.159
		c-0.691-0.652-1.51-1.163-2.457-1.541c-0.941-0.373-2.012-0.56-3.2-0.56c-1.022,0-1.933,0.143-2.728,0.426
		c-0.8,0.283-1.471,0.672-2.017,1.15c-0.546,0.479-0.964,1.039-1.248,1.676c-0.288,0.64-0.432,1.301-0.432,1.988
		c0,0.773,0.139,1.43,0.404,1.973c0.268,0.537,0.622,0.99,1.062,1.365c0.439,0.362,0.941,0.67,1.505,0.914
		c0.563,0.243,1.142,0.461,1.731,0.652c0.592,0.188,1.163,0.368,1.729,0.543c0.568,0.174,1.071,0.373,1.511,0.607
		c0.438,0.23,0.79,0.512,1.062,0.84c0.266,0.324,0.398,0.736,0.398,1.235c0,0.404-0.075,0.785-0.223,1.143
		c-0.147,0.355-0.378,0.67-0.688,0.945c-0.308,0.27-0.692,0.488-1.158,0.648c-0.463,0.164-1.004,0.244-1.62,0.244
		c-0.729,0-1.328-0.084-1.812-0.252c-0.479-0.166-0.893-0.352-1.23-0.551c-0.338-0.203-0.625-0.387-0.865-0.551
		c-0.24-0.17-0.463-0.254-0.676-0.254c-0.214,0-0.392,0.045-0.52,0.123c-0.129,0.086-0.245,0.203-0.338,0.355l-0.751,1.217
		c0.711,0.641,1.581,1.168,2.607,1.576c1.021,0.41,2.163,0.613,3.42,0.613c1.109,0,2.084-0.146,2.927-0.443
		c0.844-0.297,1.559-0.705,2.141-1.221c0.582-0.518,1.022-1.129,1.323-1.84c0.298-0.705,0.443-1.475,0.443-2.305
		c0-0.725-0.134-1.346-0.404-1.865c-0.268-0.517-0.617-0.951-1.057-1.312c-0.443-0.356-0.94-0.651-1.503-0.888
		c-0.56-0.239-1.132-0.459-1.723-0.653c-0.587-0.196-1.159-0.378-1.719-0.556c-0.561-0.17-1.058-0.368-1.497-0.596
		c-0.439-0.229-0.795-0.492-1.062-0.801c-0.267-0.311-0.404-0.697-0.404-1.158c0-0.367,0.08-0.709,0.24-1.024
		c0.164-0.315,0.396-0.591,0.697-0.831c0.303-0.235,0.671-0.428,1.098-0.561c0.427-0.138,0.91-0.203,1.443-0.203
		c0.618,0,1.155,0.065,1.608,0.203c0.453,0.133,0.839,0.283,1.168,0.443c0.325,0.16,0.604,0.309,0.831,0.438
		c0.227,0.133,0.427,0.197,0.607,0.197C125.617,30.806,125.838,30.673,125.981,30.412 M141.465,30.412l0.715-1.159
		c-0.692-0.652-1.51-1.163-2.452-1.541c-0.946-0.373-2.016-0.56-3.206-0.56c-1.021,0-1.932,0.143-2.729,0.426
		c-0.795,0.283-1.472,0.672-2.017,1.15c-0.546,0.479-0.965,1.039-1.248,1.676c-0.283,0.64-0.427,1.301-0.427,1.988
		c0,0.773,0.134,1.43,0.399,1.973c0.271,0.537,0.623,0.99,1.062,1.365c0.439,0.362,0.942,0.67,1.511,0.914
		c0.561,0.243,1.138,0.461,1.729,0.652c0.591,0.188,1.163,0.368,1.728,0.543c0.569,0.174,1.071,0.373,1.511,0.607
		c0.439,0.23,0.795,0.512,1.062,0.84c0.268,0.324,0.404,0.736,0.404,1.235c0,0.404-0.075,0.785-0.227,1.143
		c-0.149,0.355-0.378,0.67-0.688,0.945c-0.307,0.27-0.692,0.488-1.16,0.648c-0.462,0.164-1.003,0.244-1.621,0.244
		c-0.729,0-1.328-0.084-1.812-0.252c-0.479-0.166-0.895-0.352-1.23-0.551c-0.337-0.203-0.626-0.387-0.865-0.551
		c-0.234-0.17-0.463-0.254-0.676-0.254c-0.214,0-0.386,0.045-0.52,0.123c-0.128,0.086-0.244,0.203-0.337,0.355l-0.751,1.217
		c0.715,0.641,1.579,1.168,2.606,1.576c1.022,0.41,2.164,0.613,3.42,0.613c1.109,0,2.083-0.146,2.927-0.443
		c0.845-0.297,1.56-0.705,2.143-1.221c0.582-0.518,1.024-1.129,1.323-1.84c0.294-0.705,0.443-1.475,0.443-2.305
		c0-0.725-0.134-1.346-0.404-1.865c-0.263-0.517-0.617-0.951-1.058-1.312c-0.442-0.356-0.941-0.651-1.5-0.888
		c-0.56-0.239-1.134-0.459-1.719-0.653c-0.591-0.196-1.163-0.378-1.723-0.556c-0.561-0.17-1.058-0.368-1.498-0.596
		c-0.44-0.229-0.795-0.492-1.062-0.801c-0.266-0.311-0.404-0.697-0.404-1.158c0-0.367,0.08-0.709,0.245-1.024
		c0.16-0.315,0.392-0.591,0.692-0.831c0.303-0.235,0.672-0.428,1.098-0.561c0.433-0.138,0.911-0.203,1.444-0.203
		c0.622,0,1.155,0.065,1.606,0.203c0.453,0.133,0.84,0.283,1.169,0.443c0.323,0.16,0.604,0.309,0.83,0.438
		c0.227,0.133,0.427,0.197,0.608,0.197C141.1,30.806,141.322,30.673,141.465,30.412 M153.826,29.486
		c0.725,0,1.371,0.119,1.937,0.363c0.564,0.244,1.044,0.586,1.435,1.034c0.396,0.444,0.693,0.974,0.894,1.586
		s0.303,1.288,0.303,2.024h-9.829c0.219-1.566,0.764-2.799,1.644-3.682C151.086,29.927,152.295,29.486,153.826,29.486
		 M153.754,27.15c-1.307,0-2.486,0.23-3.53,0.685c-1.049,0.463-1.932,1.088-2.661,1.894c-0.725,0.799-1.278,1.75-1.665,2.842
		c-0.387,1.099-0.582,2.271-0.582,3.53c0,1.556,0.22,2.938,0.646,4.138c0.432,1.2,1.024,2.208,1.794,3.02
		c0.764,0.816,1.675,1.436,2.729,1.857c1.053,0.422,2.202,0.629,3.45,0.629c0.654,0,1.316-0.053,1.98-0.168
		c0.667-0.111,1.312-0.281,1.937-0.508c0.622-0.227,1.209-0.516,1.755-0.865c0.55-0.352,1.018-0.764,1.412-1.24l-0.892-1.158
		c-0.144-0.199-0.348-0.303-0.604-0.303c-0.204,0-0.443,0.092-0.725,0.275c-0.279,0.188-0.626,0.383-1.044,0.596
		c-0.418,0.219-0.914,0.418-1.493,0.6c-0.572,0.188-1.261,0.275-2.057,0.275c-0.858,0-1.632-0.137-2.319-0.416
		c-0.693-0.281-1.289-0.703-1.786-1.266c-0.501-0.564-0.892-1.271-1.177-2.114c-0.284-0.844-0.441-1.834-0.466-2.977h12.023
		c0.298,0,0.501-0.085,0.608-0.248c0.104-0.171,0.159-0.498,0.159-1c0-1.283-0.188-2.426-0.564-3.434
		c-0.373-0.999-0.892-1.848-1.559-2.532c-0.666-0.679-1.456-1.204-2.372-1.567C155.838,27.332,154.839,27.15,153.754,27.15
		 M168.831,19.236h-3.178v26.26h3.178V19.236z M177.963,19.236h-3.177v26.26h3.177V19.236z M194.412,33.853h5.512
		c1.893,0,3.306,0.383,4.238,1.15c0.934,0.764,1.397,1.812,1.397,3.127c0,0.679-0.105,1.301-0.32,1.865
		c-0.213,0.563-0.55,1.053-1.008,1.461c-0.457,0.41-1.039,0.729-1.75,0.955c-0.705,0.223-1.555,0.338-2.539,0.338h-5.529
		L194.412,33.853L194.412,33.853z M194.412,31.394v-8.721h4.689c1.901,0,3.311,0.352,4.212,1.053c0.9,0.702,1.359,1.803,1.359,3.301
		c0,0.64-0.117,1.23-0.342,1.771c-0.228,0.542-0.572,1.003-1.045,1.381c-0.472,0.383-1.062,0.68-1.771,0.893
		c-0.715,0.213-1.559,0.319-2.537,0.319h-4.565V31.394L194.412,31.394z M190.946,45.496h9.049c1.431,0,2.694-0.174,3.812-0.523
		c1.109-0.352,2.047-0.848,2.815-1.492c0.764-0.641,1.351-1.408,1.75-2.297c0.396-0.893,0.596-1.879,0.596-2.959
		c0-1.595-0.477-2.879-1.425-3.854c-0.951-0.974-2.363-1.645-4.229-2.013c0.81-0.248,1.515-0.571,2.113-0.963
		c0.6-0.392,1.102-0.837,1.497-1.339c0.398-0.497,0.698-1.039,0.892-1.62c0.196-0.582,0.294-1.19,0.294-1.82
		c0-1.03-0.173-1.963-0.523-2.789c-0.352-0.826-0.893-1.524-1.621-2.098c-0.732-0.568-1.664-1.008-2.803-1.314
		c-1.138-0.311-2.488-0.467-4.061-0.467h-8.155V45.496L190.946,45.496z M220.76,29.486c0.725,0,1.369,0.119,1.937,0.363
		c0.564,0.244,1.045,0.586,1.436,1.034c0.391,0.444,0.688,0.974,0.893,1.586c0.199,0.612,0.304,1.288,0.304,2.024h-9.83
		c0.214-1.566,0.764-2.799,1.644-3.682C218.02,29.927,219.227,29.486,220.76,29.486 M220.688,27.15c-1.311,0-2.485,0.23-3.535,0.685
		c-1.045,0.463-1.932,1.088-2.655,1.894c-0.726,0.799-1.279,1.75-1.665,2.842c-0.387,1.099-0.581,2.271-0.581,3.53
		c0,1.556,0.213,2.938,0.645,4.138c0.426,1.2,1.021,2.208,1.793,3.02c0.765,0.816,1.674,1.436,2.728,1.857
		c1.053,0.42,2.197,0.629,3.45,0.629c0.652,0,1.315-0.053,1.98-0.168c0.666-0.111,1.311-0.281,1.936-0.508
		c0.623-0.227,1.21-0.516,1.756-0.865c0.546-0.352,1.018-0.764,1.407-1.24l-0.89-1.158c-0.143-0.199-0.346-0.303-0.607-0.303
		c-0.2,0-0.443,0.092-0.725,0.275c-0.276,0.188-0.626,0.383-1.04,0.596c-0.421,0.219-0.915,0.418-1.492,0.6
		c-0.577,0.188-1.263,0.275-2.062,0.275c-0.857,0-1.631-0.137-2.319-0.416c-0.693-0.281-1.284-0.703-1.781-1.266
		c-0.502-0.564-0.892-1.271-1.183-2.114c-0.283-0.844-0.436-1.834-0.462-2.977h12.023c0.298,0,0.503-0.085,0.607-0.248
		c0.103-0.171,0.16-0.498,0.16-1c0-1.283-0.187-2.426-0.564-3.434c-0.373-0.999-0.892-1.848-1.559-2.532
		c-0.666-0.679-1.456-1.204-2.371-1.567C222.768,27.332,221.773,27.15,220.688,27.15 M238.794,43.178
		c-0.737,0-1.392-0.125-1.958-0.373c-0.572-0.25-1.058-0.645-1.449-1.188c-0.391-0.543-0.688-1.231-0.889-2.07
		c-0.209-0.836-0.307-1.844-0.307-3.021c0-2.222,0.453-3.936,1.354-5.135c0.9-1.199,2.203-1.799,3.892-1.799
		c0.843,0,1.612,0.155,2.311,0.471c0.692,0.315,1.338,0.865,1.919,1.647v8.735c-0.652,0.872-1.372,1.542-2.149,2.018
		C240.734,42.943,239.828,43.178,238.794,43.178 M244.948,45.496h1.894V19.234h-3.175v10.018c-0.622-0.676-1.318-1.2-2.105-1.578
		c-0.786-0.373-1.732-0.561-2.838-0.561c-1.222,0-2.319,0.24-3.283,0.721c-0.964,0.484-1.78,1.146-2.452,1.99
		c-0.676,0.843-1.186,1.839-1.541,2.983c-0.358,1.146-0.537,2.386-0.537,3.718c0,1.498,0.158,2.825,0.479,3.975
		c0.32,1.156,0.783,2.119,1.377,2.887c0.596,0.779,1.312,1.359,2.158,1.76c0.844,0.396,1.781,0.598,2.816,0.598
		c1.286,0,2.426-0.281,3.415-0.844c0.994-0.57,1.88-1.32,2.652-2.258l0.283,2.195C244.213,45.279,244.496,45.496,244.948,45.496
		 M252.888,45.496h3.194V30.091h5.121V27.79h-5.229v-1.657c0-0.771,0.085-1.42,0.258-1.941c0.174-0.522,0.417-0.944,0.741-1.265
		c0.319-0.325,0.706-0.556,1.151-0.698c0.442-0.143,0.94-0.213,1.487-0.213h0.556c0.342,0,0.612-0.021,0.799-0.07
		c0.19-0.049,0.293-0.19,0.307-0.432l0.066-1.585c-0.688-0.235-1.435-0.354-2.246-0.354c-0.95,0-1.803,0.143-2.568,0.426
		c-0.759,0.283-1.412,0.706-1.949,1.258c-0.544,0.555-0.961,1.23-1.254,2.035c-0.288,0.805-0.436,1.719-0.436,2.753v1.745h-2.853
		v1.302c0,0.239,0.079,0.422,0.239,0.545c0.155,0.124,0.363,0.22,0.612,0.276l2,0.229L252.888,45.496L252.888,45.496z
		 M271.512,43.266c-0.906,0-1.688-0.154-2.354-0.463c-0.667-0.311-1.227-0.75-1.67-1.328c-0.442-0.576-0.776-1.288-0.999-2.132
		c-0.218-0.844-0.328-1.799-0.328-2.869c0-1.071,0.11-2.03,0.328-2.879c0.224-0.854,0.557-1.567,0.999-2.149
		c0.443-0.582,1.003-1.024,1.67-1.338c0.666-0.306,1.448-0.461,2.354-0.461c1.785,0,3.118,0.598,3.993,1.797
		c0.88,1.205,1.322,2.879,1.322,5.028c0,2.142-0.442,3.808-1.322,5.001C274.63,42.672,273.297,43.266,271.512,43.266 M271.512,27.15
		c-1.319,0-2.515,0.219-3.58,0.657c-1.062,0.443-1.967,1.066-2.719,1.875c-0.751,0.81-1.323,1.786-1.732,2.933
		c-0.399,1.146-0.604,2.431-0.604,3.844c0,1.425,0.204,2.709,0.604,3.851c0.409,1.142,0.981,2.113,1.732,2.923
		c0.752,0.809,1.656,1.43,2.719,1.865c1.065,0.432,2.261,0.652,3.58,0.652c1.317,0,2.515-0.223,3.576-0.652
		c1.065-0.436,1.973-1.057,2.709-1.865c0.746-0.811,1.314-1.781,1.716-2.923c0.398-1.142,0.599-2.426,0.599-3.851
		c0-1.413-0.199-2.697-0.599-3.844c-0.4-1.146-0.97-2.123-1.716-2.933c-0.736-0.809-1.644-1.43-2.709-1.875
		C274.026,27.367,272.831,27.15,271.512,27.15 M284.036,45.496h3.172v-11.5c0.503-1.227,1.12-2.154,1.866-2.799
		c0.741-0.646,1.67-0.965,2.771-0.965c0.618,0,1.103,0.059,1.449,0.17c0.342,0.115,0.599,0.174,0.764,0.174
		c0.288,0,0.47-0.15,0.555-0.448l0.409-2.372c-0.342-0.199-0.72-0.359-1.119-0.471c-0.409-0.116-0.856-0.17-1.358-0.17
		c-1.228,0-2.292,0.355-3.203,1.062c-0.906,0.705-1.676,1.688-2.293,2.949l-0.213-2.816c-0.05-0.324-0.139-0.546-0.268-0.679
		c-0.133-0.129-0.368-0.196-0.715-0.196h-1.817V45.496z M304.977,43.178c-0.736,0-1.391-0.125-1.958-0.373
		c-0.574-0.25-1.052-0.645-1.449-1.188c-0.39-0.543-0.688-1.231-0.889-2.07c-0.204-0.836-0.309-1.844-0.309-3.021
		c0-2.222,0.453-3.936,1.359-5.135c0.901-1.199,2.198-1.799,3.887-1.799c0.845,0,1.612,0.155,2.311,0.471
		c0.697,0.315,1.338,0.865,1.92,1.647v8.735c-0.652,0.872-1.372,1.542-2.15,2.018C306.923,42.943,306.012,43.178,304.977,43.178
		 M311.132,45.496h1.893V19.234h-3.176v10.018c-0.618-0.676-1.319-1.2-2.106-1.578c-0.785-0.373-1.731-0.561-2.838-0.561
		c-1.221,0-2.317,0.24-3.283,0.721c-0.959,0.484-1.78,1.146-2.451,1.99c-0.672,0.843-1.186,1.839-1.541,2.983
		c-0.359,1.146-0.538,2.386-0.538,3.718c0,1.498,0.16,2.825,0.483,3.975c0.32,1.156,0.778,2.119,1.372,2.887
		c0.597,0.779,1.315,1.359,2.159,1.76c0.844,0.396,1.786,0.598,2.816,0.598c1.287,0,2.425-0.281,3.416-0.844
		c0.996-0.57,1.879-1.32,2.65-2.258l0.284,2.195C310.396,45.279,310.679,45.496,311.132,45.496 M177.497,68.092
		c0.013,0.613,0.189,1.084,0.527,1.408c0.343,0.32,0.81,0.479,1.398,0.479c0.383,0,0.764-0.07,1.146-0.223
		c0.384-0.15,0.72-0.355,1.014-0.619l-0.343-0.771c-0.031-0.059-0.058-0.096-0.085-0.119c-0.025-0.023-0.065-0.037-0.114-0.037
		c-0.052,0-0.104,0.021-0.166,0.066c-0.062,0.043-0.134,0.098-0.224,0.148c-0.089,0.055-0.194,0.107-0.318,0.15
		c-0.119,0.045-0.258,0.066-0.417,0.066c-0.249,0-0.443-0.068-0.592-0.223c-0.144-0.145-0.214-0.377-0.214-0.688l0.006-0.084
		l0.018-0.191l0.036-0.363l0.069-0.604l0.556-4.547h2.442l0.139-1.18h-2.436l0.399-3.188h-0.857c-0.097,0-0.177,0.031-0.245,0.09
		c-0.069,0.057-0.11,0.133-0.138,0.223l-0.688,2.861l-1.423,0.191c-0.01,0.064-0.012,0.137-0.021,0.207l-0.031,0.219l-0.021,0.188
		l-0.01,0.111c0,0.096,0.026,0.168,0.08,0.213c0.054,0.043,0.115,0.064,0.195,0.064h1.03l-0.574,4.635
		c-0.036,0.283-0.065,0.516-0.085,0.691l-0.039,0.432l-0.018,0.25L177.497,68.092z M185.959,68.611c-0.938,0-1.408-0.73-1.408-2.195
		c0-0.418,0.049-0.826,0.146-1.227c0.098-0.396,0.23-0.773,0.404-1.125c0.177-0.352,0.383-0.676,0.628-0.969
		c0.244-0.299,0.517-0.551,0.816-0.764c0.298-0.209,0.617-0.379,0.959-0.494c0.338-0.119,0.692-0.176,1.057-0.176h0.387
		c0.134,0,0.267,0.053,0.399,0.16l-0.391,3.125c-0.174,0.539-0.368,1.025-0.592,1.471c-0.223,0.449-0.463,0.836-0.72,1.156
		c-0.254,0.324-0.523,0.576-0.812,0.764C186.549,68.518,186.256,68.611,185.959,68.611 M189.943,69.836l1.105-8.945
		c-0.369-0.16-0.737-0.271-1.111-0.338c-0.373-0.066-0.763-0.098-1.154-0.098c-0.551,0-1.075,0.08-1.572,0.236
		c-0.501,0.154-0.968,0.373-1.403,0.654c-0.436,0.285-0.831,0.619-1.186,1.004c-0.353,0.387-0.652,0.812-0.906,1.271
		c-0.252,0.467-0.448,0.959-0.586,1.479c-0.14,0.52-0.204,1.053-0.204,1.6c0,0.523,0.058,0.992,0.175,1.396
		c0.115,0.404,0.28,0.746,0.488,1.021c0.213,0.279,0.466,0.49,0.764,0.631c0.298,0.143,0.631,0.213,0.996,0.213
		c0.334,0,0.656-0.059,0.969-0.178c0.312-0.119,0.608-0.293,0.894-0.516c0.279-0.223,0.55-0.484,0.804-0.799
		c0.249-0.316,0.484-0.668,0.706-1.053l-0.165,1.852c0,0.16,0.036,0.293,0.116,0.4c0.075,0.111,0.218,0.168,0.432,0.168H189.943z
		 M195.858,56.383h-1.595l-1.656,13.453h1.606l0.542-4.42h0.311c0.17,0,0.293,0.023,0.369,0.062
		c0.074,0.045,0.154,0.125,0.234,0.244l2.354,3.793c0.068,0.111,0.144,0.195,0.229,0.244c0.08,0.049,0.187,0.076,0.325,0.076h1.395
		l-2.776-4.564c-0.066-0.117-0.134-0.225-0.199-0.32c-0.066-0.098-0.15-0.188-0.248-0.258c0.105-0.062,0.198-0.135,0.289-0.213
		c0.089-0.084,0.176-0.176,0.271-0.271l3.571-3.625h-1.436c-0.146,0-0.268,0.031-0.355,0.094c-0.093,0.059-0.188,0.139-0.284,0.236
		l-3.061,3.131c-0.098,0.107-0.187,0.172-0.267,0.209c-0.08,0.031-0.178,0.049-0.303,0.049h-0.279L195.858,56.383z M205.035,57.68
		c0-0.156-0.031-0.309-0.095-0.453c-0.059-0.143-0.143-0.268-0.249-0.373c-0.105-0.107-0.23-0.188-0.363-0.254
		c-0.134-0.057-0.271-0.088-0.417-0.088c-0.144,0-0.278,0.031-0.412,0.098c-0.135,0.062-0.249,0.145-0.356,0.252
		c-0.102,0.105-0.186,0.23-0.244,0.373c-0.062,0.139-0.092,0.289-0.092,0.443c0,0.16,0.031,0.307,0.092,0.443
		c0.06,0.139,0.14,0.258,0.24,0.363s0.218,0.191,0.353,0.254c0.133,0.061,0.271,0.088,0.412,0.088c0.146,0,0.284-0.025,0.417-0.088
		c0.14-0.064,0.259-0.146,0.363-0.254c0.107-0.105,0.191-0.227,0.258-0.363C205.004,57.986,205.035,57.84,205.035,57.68
		 M204.422,60.584h-1.6l-1.113,9.252h1.599L204.422,60.584z M206.123,69.836h1.627l0.533-4.703c0.169-0.506,0.372-0.965,0.611-1.377
		c0.24-0.408,0.502-0.758,0.782-1.049c0.279-0.289,0.572-0.512,0.871-0.67c0.303-0.16,0.6-0.24,0.892-0.24
		c0.396,0,0.685,0.119,0.87,0.363c0.188,0.24,0.281,0.607,0.281,1.109c0,0.104-0.006,0.209-0.014,0.318l-0.031,0.354l-0.692,5.895
		h1.626l0.693-5.895c0.017-0.139,0.031-0.271,0.035-0.4c0.01-0.129,0.01-0.254,0.01-0.373c0-0.889-0.191-1.562-0.569-2.025
		c-0.382-0.465-0.915-0.697-1.604-0.697c-0.666,0-1.306,0.209-1.924,0.623c-0.617,0.414-1.173,1.029-1.669,1.844l0.138-1.791
		c0-0.363-0.183-0.545-0.545-0.545h-0.817L206.123,69.836z M219.197,65.662c-0.471,0-0.844-0.143-1.109-0.432
		c-0.264-0.283-0.396-0.703-0.396-1.248c0-0.312,0.044-0.609,0.133-0.896c0.091-0.285,0.22-0.539,0.388-0.764
		c0.169-0.229,0.383-0.41,0.63-0.543c0.249-0.133,0.542-0.199,0.87-0.199c0.475,0,0.848,0.139,1.119,0.412
		c0.271,0.27,0.403,0.676,0.403,1.213c0,0.297-0.043,0.596-0.133,0.889c-0.092,0.289-0.226,0.555-0.398,0.785
		c-0.174,0.234-0.387,0.426-0.637,0.568C219.818,65.59,219.529,65.662,219.197,65.662 M221.026,70.064
		c0,0.262-0.064,0.512-0.195,0.752c-0.134,0.234-0.314,0.441-0.551,0.621c-0.234,0.174-0.517,0.314-0.849,0.422
		c-0.334,0.105-0.697,0.16-1.102,0.16c-0.677,0-1.199-0.115-1.568-0.348c-0.368-0.229-0.551-0.562-0.551-1.002
		c0-0.209,0.059-0.41,0.173-0.6c0.116-0.191,0.294-0.359,0.528-0.506c0.239-0.148,0.543-0.264,0.905-0.354
		c0.363-0.09,0.795-0.133,1.297-0.133c0.255,0,0.528,0.012,0.816,0.035c0.289,0.027,0.596,0.062,0.929,0.119
		c0.05,0.121,0.085,0.25,0.119,0.387S221.026,69.904,221.026,70.064 M222.728,63.152c0-0.197-0.017-0.379-0.048-0.557
		c-0.031-0.172-0.071-0.336-0.129-0.492l1.155-0.203c0.115-0.018,0.198-0.07,0.257-0.154c0.059-0.086,0.093-0.178,0.106-0.281
		l0.07-0.543h-2.51c-0.498-0.314-1.076-0.475-1.746-0.475c-0.601,0-1.129,0.102-1.582,0.303c-0.457,0.203-0.84,0.465-1.15,0.799
		c-0.314,0.334-0.551,0.711-0.711,1.133c-0.159,0.422-0.238,0.854-0.238,1.291c0,0.449,0.064,0.846,0.198,1.184
		c0.135,0.338,0.315,0.619,0.546,0.844c0.23,0.229,0.502,0.396,0.81,0.512c0.311,0.115,0.64,0.178,0.996,0.178
		c0.362,0,0.688-0.045,0.972-0.129c0.288-0.09,0.55-0.209,0.778-0.369c-0.135,0.254-0.228,0.477-0.285,0.676
		c-0.058,0.205-0.084,0.4-0.084,0.588c0,0.145,0.013,0.283,0.049,0.408c0.031,0.125,0.075,0.24,0.129,0.359
		c-0.214-0.031-0.428-0.055-0.641-0.076c-0.218-0.018-0.437-0.025-0.656-0.025c-0.543,0-1.076,0.053-1.595,0.154
		c-0.52,0.102-0.986,0.268-1.393,0.494c-0.407,0.227-0.735,0.512-0.989,0.857c-0.249,0.346-0.373,0.764-0.373,1.244
		c0,0.342,0.084,0.652,0.254,0.938c0.164,0.283,0.403,0.523,0.711,0.725c0.307,0.199,0.678,0.357,1.113,0.465
		c0.437,0.111,0.92,0.164,1.448,0.164c0.666,0,1.267-0.088,1.795-0.262c0.533-0.174,0.986-0.408,1.359-0.705
		c0.369-0.297,0.658-0.641,0.858-1.025c0.203-0.385,0.303-0.795,0.303-1.229c0-0.354-0.063-0.658-0.188-0.916
		c-0.124-0.264-0.262-0.502-0.41-0.721c-0.149-0.219-0.286-0.432-0.411-0.641c-0.123-0.203-0.187-0.434-0.187-0.693
		c0-0.225,0.031-0.436,0.103-0.625c0.069-0.189,0.153-0.377,0.262-0.561c0.102-0.182,0.218-0.363,0.337-0.549
		c0.12-0.178,0.235-0.373,0.337-0.582s0.191-0.432,0.258-0.676C222.68,63.73,222.719,63.453,222.728,63.152 M230.535,72.594
		l6.25-12.01h-1.287c-0.09,0-0.183,0.031-0.267,0.09c-0.09,0.055-0.16,0.133-0.209,0.23l-2.923,5.838
		c-0.064,0.123-0.128,0.256-0.177,0.385c-0.054,0.133-0.107,0.262-0.16,0.391c-0.013-0.129-0.027-0.258-0.044-0.385
		c-0.022-0.129-0.044-0.258-0.075-0.383l-1.488-5.828c-0.025-0.098-0.069-0.178-0.133-0.24c-0.062-0.064-0.16-0.098-0.289-0.098
		h-1.342l2.396,8.707l-2.007,3.676h1.189C230.221,72.967,230.406,72.844,230.535,72.594 M240.389,68.695
		c-0.64,0-1.125-0.225-1.457-0.656c-0.334-0.432-0.496-1.08-0.496-1.928c0-0.576,0.07-1.133,0.208-1.66
		c0.138-0.533,0.337-1,0.591-1.404c0.259-0.404,0.569-0.729,0.929-0.969c0.363-0.24,0.772-0.359,1.223-0.359
		c0.635,0,1.119,0.219,1.451,0.65c0.338,0.432,0.502,1.074,0.502,1.926c0,0.578-0.066,1.133-0.209,1.66
		c-0.144,0.529-0.337,0.996-0.596,1.404c-0.255,0.398-0.564,0.729-0.934,0.969C241.236,68.572,240.832,68.695,240.389,68.695
		 M240.24,69.961c0.661,0,1.284-0.15,1.866-0.449c0.576-0.303,1.078-0.709,1.502-1.23c0.422-0.516,0.759-1.119,0.998-1.809
		c0.245-0.688,0.364-1.416,0.364-2.189c0-0.604-0.085-1.146-0.255-1.621c-0.172-0.479-0.408-0.885-0.715-1.211
		c-0.304-0.33-0.666-0.578-1.088-0.752c-0.416-0.172-0.879-0.262-1.387-0.262c-0.671,0-1.292,0.15-1.87,0.447
		c-0.576,0.299-1.075,0.707-1.497,1.223c-0.423,0.52-0.757,1.125-0.998,1.809c-0.245,0.688-0.369,1.422-0.369,2.201
		c0,0.609,0.09,1.15,0.258,1.627c0.169,0.475,0.408,0.875,0.715,1.203c0.303,0.33,0.666,0.582,1.083,0.756
		C239.273,69.877,239.734,69.961,240.24,69.961 M248.895,60.584h-1.617l-0.691,5.881c-0.022,0.139-0.031,0.277-0.039,0.4
		c-0.005,0.129-0.01,0.252-0.01,0.379c0,0.875,0.19,1.549,0.573,2.016c0.383,0.471,0.915,0.703,1.604,0.703
		c0.645,0,1.273-0.199,1.878-0.604c0.613-0.404,1.164-1,1.658-1.787l-0.066,0.738l-0.01,0.164l-0.031,0.338l-0.021,0.336
		l-0.011,0.164c0,0.178,0.055,0.311,0.156,0.396c0.103,0.084,0.248,0.127,0.438,0.127h0.804l1.115-9.252h-1.621l-0.572,4.816
		c-0.178,0.482-0.386,0.928-0.623,1.32c-0.234,0.396-0.492,0.732-0.771,1.016c-0.276,0.277-0.564,0.496-0.857,0.645
		c-0.298,0.152-0.587,0.23-0.862,0.23c-0.403,0-0.696-0.121-0.885-0.365c-0.187-0.244-0.275-0.617-0.275-1.113
		c0-0.104,0-0.209,0.011-0.32c0.009-0.111,0.021-0.229,0.035-0.348L248.895,60.584z M262.563,61.934h2.246l0.155-1.168h-2.311
		l0.111-0.844c0.049-0.395,0.129-0.729,0.244-1.002c0.117-0.275,0.258-0.498,0.432-0.662c0.17-0.172,0.363-0.293,0.586-0.373
		c0.229-0.07,0.469-0.111,0.729-0.111h0.204h0.177c0.111,0,0.199-0.014,0.271-0.031c0.07-0.021,0.111-0.074,0.124-0.164l0.154-0.832
		c-0.31-0.123-0.656-0.191-1.034-0.191c-0.443,0-0.861,0.076-1.243,0.225c-0.391,0.145-0.731,0.357-1.034,0.645
		c-0.304,0.283-0.552,0.627-0.751,1.039c-0.196,0.412-0.329,0.885-0.396,1.414l-0.111,0.893h-1.321l-0.076,0.715
		c0,0.102,0.031,0.182,0.093,0.234c0.063,0.053,0.146,0.098,0.249,0.129l0.912,0.115l-1.231,10.146h0.636
		c0.463,0,0.736-0.229,0.844-0.686l0.417-1.889L262.563,61.934z M268.092,60.584h-1.616l-0.698,5.881
		c-0.018,0.139-0.025,0.277-0.034,0.4c-0.007,0.129-0.011,0.252-0.011,0.379c0,0.875,0.191,1.549,0.572,2.016
		c0.378,0.471,0.915,0.703,1.604,0.703c0.646,0,1.271-0.199,1.879-0.604c0.612-0.404,1.158-1,1.657-1.787l-0.065,0.738l-0.01,0.164
		l-0.031,0.338l-0.021,0.336l-0.01,0.164c0,0.178,0.054,0.311,0.155,0.396c0.103,0.084,0.25,0.127,0.438,0.127h0.804l1.115-9.252
		h-1.616l-0.577,4.816c-0.178,0.482-0.386,0.928-0.622,1.32c-0.234,0.396-0.492,0.732-0.772,1.016
		c-0.276,0.277-0.56,0.496-0.857,0.645c-0.298,0.152-0.587,0.23-0.861,0.23c-0.405,0-0.698-0.121-0.886-0.365
		c-0.187-0.244-0.279-0.617-0.279-1.113c0-0.104,0.005-0.209,0.013-0.32l0.031-0.348L268.092,60.584z M275.283,69.836h1.59
		l0.512-4.295c0.311-1.168,0.696-2.039,1.16-2.617c0.463-0.572,0.99-0.861,1.579-0.861c0.268,0,0.547,0.057,0.831,0.172l0.294-1.562
		c-0.254-0.105-0.512-0.16-0.769-0.16c-0.543,0-1.057,0.23-1.546,0.693c-0.494,0.461-0.938,1.119-1.333,1.971l0.129-1.684
		l0.005-0.062l0.009-0.129l0.011-0.143l0.005-0.102c0-0.164-0.049-0.289-0.146-0.363c-0.097-0.08-0.229-0.119-0.398-0.119h-0.816
		L275.283,69.836z M282.683,68.092c0.013,0.613,0.187,1.084,0.528,1.408c0.342,0.32,0.81,0.479,1.397,0.479
		c0.386,0,0.77-0.07,1.146-0.223c0.383-0.15,0.72-0.355,1.013-0.619l-0.337-0.771c-0.031-0.059-0.062-0.096-0.09-0.119
		c-0.031-0.023-0.067-0.037-0.115-0.037c-0.049,0-0.104,0.021-0.165,0.066c-0.062,0.043-0.138,0.098-0.223,0.148
		c-0.09,0.055-0.196,0.107-0.315,0.15c-0.123,0.045-0.262,0.066-0.422,0.066c-0.249,0-0.448-0.068-0.591-0.223
		c-0.144-0.145-0.213-0.377-0.213-0.688l0.005-0.084l0.017-0.191l0.039-0.363c0.013-0.15,0.036-0.352,0.066-0.604l0.555-4.547h2.443
		l0.133-1.18h-2.43l0.403-3.188h-0.862c-0.098,0-0.178,0.031-0.244,0.09c-0.065,0.057-0.116,0.133-0.139,0.223l-0.684,2.861
		l-1.425,0.191c-0.005,0.064-0.014,0.137-0.027,0.207l-0.021,0.219l-0.026,0.188l-0.01,0.111c0,0.096,0.025,0.168,0.08,0.213
		c0.049,0.043,0.115,0.064,0.194,0.064h1.03l-0.572,4.635l-0.084,0.691l-0.04,0.432l-0.017,0.25
		C282.683,68.008,282.683,68.055,282.683,68.092 M288.395,69.836h1.626l0.596-4.904c0.173-0.475,0.383-0.904,0.618-1.293
		c0.239-0.385,0.493-0.719,0.769-0.99c0.275-0.275,0.561-0.49,0.849-0.635c0.288-0.15,0.569-0.227,0.844-0.227
		c0.399,0,0.692,0.123,0.879,0.363c0.188,0.25,0.281,0.617,0.281,1.119c0,0.104-0.005,0.207-0.015,0.318l-0.031,0.354l-0.692,5.895
		h1.626l0.692-5.895c0.018-0.139,0.031-0.271,0.036-0.404c0.005-0.129,0.01-0.258,0.01-0.379c0-0.883-0.187-1.557-0.563-2.018
		c-0.379-0.465-0.92-0.695-1.617-0.695c-0.617,0-1.216,0.182-1.809,0.555c-0.586,0.363-1.119,0.91-1.604,1.631l0.759-6.25h-1.626
		L288.395,69.836z M302.796,61.623c0.238,0,0.447,0.037,0.622,0.098c0.164,0.068,0.311,0.148,0.411,0.24
		c0.107,0.098,0.184,0.209,0.235,0.33c0.049,0.115,0.071,0.23,0.071,0.342c0,0.217-0.049,0.426-0.146,0.625
		c-0.097,0.203-0.298,0.391-0.604,0.564c-0.304,0.174-0.736,0.334-1.307,0.482c-0.563,0.148-1.318,0.281-2.257,0.396
		c0.099-0.43,0.235-0.836,0.409-1.209c0.178-0.373,0.396-0.701,0.646-0.979c0.25-0.277,0.532-0.49,0.857-0.65
		C302.059,61.703,302.407,61.623,302.796,61.623 M305.59,62.566c0-0.223-0.055-0.463-0.16-0.709c-0.106-0.25-0.268-0.48-0.489-0.686
		c-0.218-0.209-0.502-0.377-0.839-0.51c-0.342-0.139-0.746-0.205-1.217-0.205c-0.489,0-0.954,0.08-1.387,0.23
		c-0.427,0.15-0.815,0.357-1.178,0.621c-0.354,0.268-0.676,0.582-0.95,0.947c-0.274,0.363-0.511,0.766-0.702,1.188
		c-0.195,0.426-0.337,0.879-0.438,1.35c-0.097,0.471-0.15,0.947-0.15,1.418c0,0.576,0.08,1.092,0.235,1.555
		c0.16,0.463,0.386,0.857,0.679,1.182c0.289,0.33,0.649,0.578,1.071,0.756c0.417,0.178,0.893,0.262,1.425,0.262
		c0.386,0,0.751-0.031,1.089-0.102c0.337-0.07,0.666-0.182,0.973-0.332c0.311-0.154,0.612-0.342,0.91-0.574
		c0.299-0.225,0.6-0.502,0.911-0.826l-0.404-0.502c-0.089-0.102-0.19-0.154-0.303-0.154c-0.098,0-0.19,0.031-0.289,0.096
		c-0.097,0.061-0.203,0.133-0.323,0.223l-0.378,0.293c-0.139,0.105-0.293,0.203-0.477,0.293c-0.177,0.09-0.382,0.16-0.612,0.223
		c-0.228,0.062-0.488,0.094-0.782,0.094c-0.715,0-1.252-0.217-1.608-0.645c-0.357-0.432-0.537-1.051-0.537-1.871v-0.195
		c0-0.062,0.004-0.127,0.009-0.195c1.21-0.123,2.193-0.283,2.965-0.484c0.764-0.199,1.366-0.436,1.808-0.711
		c0.438-0.266,0.741-0.572,0.901-0.91C305.51,63.34,305.59,62.969,305.59,62.566 M306.797,69.836h1.59l0.512-4.295
		c0.31-1.168,0.697-2.039,1.158-2.617c0.463-0.572,0.991-0.861,1.58-0.861c0.267,0,0.546,0.057,0.831,0.172l0.294-1.562
		c-0.258-0.105-0.513-0.16-0.77-0.16c-0.543,0-1.057,0.23-1.551,0.693c-0.489,0.461-0.933,1.119-1.328,1.971l0.129-1.684
		l0.005-0.062l0.01-0.129l0.01-0.143l0.005-0.102c0-0.164-0.049-0.289-0.146-0.363c-0.097-0.08-0.229-0.119-0.398-0.119h-0.816
		L306.797,69.836z"/>
</g>
</svg>
