<?xml version="1.0" encoding="utf-8"?>
<!-- Generator: Adobe Illustrator 16.0.0, SVG Export Plug-In . SVG Version: 6.00 Build 0)  -->
<!DOCTYPE svg PUBLIC "-//W3C//DTD SVG 1.1//EN" "http://www.w3.org/Graphics/SVG/1.1/DTD/svg11.dtd">
<svg version="1.1" id="Layer_1" xmlns="http://www.w3.org/2000/svg" xmlns:xlink="http://www.w3.org/1999/xlink" x="0px" y="0px"
	 width="320px" height="80px" viewBox="39.957 159.909 320 80" enable-background="new 39.957 159.909 320 80" xml:space="preserve"
	>
<g>
	<path fill="#2D3484" d="M53.831,211.562L91.715,173.7c-1.071-0.972-2.208-1.849-3.39-2.621l-34.877,40.052
		C53.577,211.279,53.701,211.42,53.831,211.562 M50.943,207.756l36.965-36.943c-1.244-0.777-2.54-1.444-3.868-1.999l-33.43,38.392
		C50.722,207.393,50.832,207.574,50.943,207.756 M48.704,203.301l34.748-34.726c-1.418-0.551-2.874-0.977-4.348-1.284L48.42,202.533
		C48.51,202.79,48.606,203.047,48.704,203.301 M47.252,198.064l30.955-30.938c-1.487-0.254-2.998-0.378-4.508-0.378H73.69h-0.378
		l-26.237,30.129C47.128,197.277,47.185,197.668,47.252,198.064 M46.933,191.689l24.896-24.88c-1.932,0.134-3.851,0.476-5.722,1.022
		l-18.944,21.756C47.061,190.286,46.98,190.988,46.933,191.689 M49.099,182.832l13.868-13.858c-2.993,1.301-5.796,3.18-8.243,5.624
		C52.28,177.045,50.402,179.844,49.099,182.832 M93.367,175.334l-37.902,37.881c1.103,1.018,2.261,1.924,3.473,2.724l34.9-40.079
		C93.683,175.686,93.527,175.509,93.367,175.334 M96.29,179.105l-37.05,37.027c1.274,0.816,2.603,1.515,3.967,2.092l33.492-38.463
		C96.565,179.546,96.428,179.323,96.29,179.105 M98.568,183.521L63.66,218.411c1.452,0.587,2.949,1.04,4.464,1.354l30.786-35.354
		C98.803,184.116,98.688,183.818,98.568,183.521 M100.07,188.713l-31.217,31.2c1.665,0.303,3.349,0.444,5.032,0.431l26.395-30.306
		C100.216,189.593,100.15,189.153,100.07,188.713 M100.465,195.012l-25.309,25.292c1.981-0.106,3.957-0.437,5.881-0.981
		l19.212-22.062C100.349,196.514,100.425,195.763,100.465,195.012 M98.546,203.621l-14.774,14.765
		c3.233-1.311,6.259-3.269,8.879-5.89C95.272,209.879,97.235,206.85,98.546,203.621"/>
	<path fill="#2D3484" d="M117.072,192.231v-9.647h3.785c1.984,0,3.478,0.386,4.485,1.159c1.004,0.772,1.506,1.919,1.506,3.443
		c0,0.746-0.129,1.43-0.391,2.047c-0.262,0.623-0.652,1.151-1.168,1.6c-0.52,0.443-1.159,0.79-1.928,1.035
		c-0.768,0.239-1.657,0.363-2.665,0.363H117.072L117.072,192.231z M117.072,194.745h2.625c0.475,0,0.831,0.062,1.07,0.187
		c0.235,0.124,0.458,0.329,0.662,0.613l6.632,9.129c0.298,0.488,0.764,0.731,1.396,0.731h3.07l-7.459-10.146
		c-0.334-0.475-0.715-0.835-1.142-1.088c0.986-0.226,1.871-0.555,2.648-0.994c0.778-0.44,1.439-0.972,1.98-1.599
		c0.543-0.623,0.95-1.328,1.238-2.11c0.284-0.786,0.427-1.631,0.427-2.532c0-1.084-0.182-2.062-0.55-2.937
		c-0.369-0.871-0.938-1.617-1.706-2.234c-0.764-0.618-1.737-1.093-2.913-1.418c-1.178-0.329-2.576-0.494-4.193-0.494h-7.226v25.55
		h3.442v-10.657H117.072z M138.501,187.346h-3.177v11.519c0,1.021,0.129,1.954,0.383,2.798c0.257,0.844,0.645,1.564,1.15,2.16
		c0.512,0.596,1.146,1.052,1.902,1.381c0.756,0.324,1.626,0.494,2.616,0.494c1.263,0,2.377-0.267,3.354-0.795
		c0.972-0.529,1.852-1.23,2.639-2.097l0.249,1.941c0.119,0.443,0.404,0.661,0.857,0.661h1.893v-18.062h-3.177v13.321
		c-0.688,0.782-1.443,1.396-2.27,1.835c-0.817,0.438-1.692,0.656-2.617,0.656c-1.274,0-2.225-0.373-2.856-1.124
		c-0.631-0.746-0.946-1.803-0.946-3.172L138.501,187.346L138.501,187.346z M165.938,190.322l0.715-1.159
		c-0.692-0.652-1.51-1.163-2.457-1.541c-0.942-0.373-2.012-0.56-3.201-0.56c-1.022,0-1.932,0.143-2.727,0.426
		c-0.8,0.284-1.471,0.672-2.017,1.151s-0.964,1.039-1.248,1.675c-0.288,0.64-0.431,1.301-0.431,1.989
		c0,0.773,0.138,1.43,0.404,1.973c0.267,0.537,0.622,0.99,1.062,1.364c0.44,0.363,0.942,0.671,1.505,0.914
		c0.564,0.244,1.142,0.462,1.732,0.653c0.591,0.187,1.163,0.368,1.728,0.543c0.569,0.174,1.071,0.373,1.511,0.608
		c0.438,0.23,0.79,0.511,1.062,0.839c0.266,0.324,0.399,0.736,0.399,1.235c0,0.404-0.075,0.785-0.223,1.142
		c-0.147,0.355-0.378,0.671-0.688,0.945c-0.308,0.271-0.693,0.489-1.158,0.649c-0.463,0.164-1.004,0.244-1.621,0.244
		c-0.729,0-1.328-0.084-1.812-0.252c-0.48-0.165-0.893-0.352-1.231-0.551c-0.337-0.203-0.625-0.386-0.865-0.551
		c-0.24-0.169-0.463-0.254-0.676-0.254s-0.391,0.045-0.519,0.124c-0.129,0.085-0.245,0.204-0.338,0.356l-0.751,1.217
		c0.711,0.639,1.581,1.168,2.607,1.576c1.021,0.41,2.164,0.613,3.42,0.613c1.11,0,2.084-0.146,2.927-0.443
		c0.844-0.298,1.559-0.705,2.141-1.221c0.582-0.517,1.022-1.129,1.323-1.84c0.298-0.705,0.443-1.475,0.443-2.305
		c0-0.725-0.133-1.346-0.404-1.866c-0.267-0.516-0.617-0.95-1.057-1.311c-0.443-0.356-0.94-0.652-1.502-0.888
		c-0.56-0.239-1.132-0.458-1.723-0.653c-0.587-0.196-1.159-0.378-1.719-0.556c-0.56-0.169-1.057-0.368-1.497-0.596
		c-0.439-0.228-0.795-0.492-1.062-0.8c-0.267-0.31-0.405-0.697-0.405-1.158c0-0.368,0.08-0.71,0.24-1.025
		c0.165-0.315,0.396-0.591,0.698-0.831c0.302-0.235,0.671-0.427,1.097-0.56c0.427-0.138,0.911-0.204,1.444-0.204
		c0.618,0,1.155,0.066,1.608,0.204c0.453,0.133,0.839,0.283,1.168,0.443c0.325,0.16,0.604,0.308,0.831,0.437
		c0.227,0.133,0.427,0.198,0.608,0.198C165.574,190.717,165.795,190.584,165.938,190.322 M181.422,190.322l0.715-1.159
		c-0.692-0.652-1.51-1.163-2.452-1.541c-0.946-0.373-2.016-0.56-3.206-0.56c-1.022,0-1.932,0.143-2.729,0.426
		c-0.795,0.284-1.471,0.672-2.016,1.151c-0.546,0.479-0.965,1.039-1.248,1.675c-0.284,0.64-0.427,1.301-0.427,1.989
		c0,0.773,0.134,1.43,0.399,1.973c0.271,0.537,0.623,0.99,1.062,1.364c0.439,0.363,0.942,0.671,1.511,0.914
		c0.56,0.244,1.137,0.462,1.728,0.653c0.591,0.187,1.163,0.368,1.728,0.543c0.569,0.174,1.071,0.373,1.51,0.608
		c0.44,0.23,0.795,0.511,1.062,0.839c0.267,0.324,0.404,0.736,0.404,1.235c0,0.404-0.075,0.785-0.226,1.142
		c-0.15,0.355-0.378,0.671-0.688,0.945c-0.307,0.271-0.692,0.489-1.16,0.649c-0.462,0.164-1.003,0.244-1.621,0.244
		c-0.729,0-1.328-0.084-1.812-0.252c-0.479-0.165-0.894-0.352-1.23-0.551c-0.337-0.203-0.626-0.386-0.865-0.551
		c-0.235-0.169-0.463-0.254-0.676-0.254c-0.214,0-0.386,0.045-0.52,0.124c-0.128,0.085-0.244,0.204-0.337,0.356l-0.751,1.217
		c0.715,0.639,1.58,1.168,2.607,1.576c1.022,0.41,2.164,0.613,3.42,0.613c1.109,0,2.083-0.146,2.927-0.443s1.559-0.705,2.142-1.221
		c0.582-0.517,1.025-1.129,1.323-1.84c0.294-0.705,0.444-1.475,0.444-2.305c0-0.725-0.134-1.346-0.405-1.866
		c-0.262-0.516-0.617-0.95-1.057-1.311c-0.443-0.356-0.942-0.652-1.5-0.888c-0.56-0.239-1.134-0.458-1.719-0.653
		c-0.591-0.196-1.163-0.378-1.723-0.556c-0.56-0.169-1.057-0.368-1.498-0.596c-0.44-0.228-0.795-0.492-1.062-0.8
		c-0.266-0.31-0.404-0.697-0.404-1.158c0-0.368,0.08-0.71,0.245-1.025c0.16-0.315,0.391-0.591,0.692-0.831
		c0.303-0.235,0.672-0.427,1.098-0.56c0.432-0.138,0.911-0.204,1.444-0.204c0.622,0,1.155,0.066,1.607,0.204
		c0.453,0.133,0.839,0.283,1.168,0.443c0.324,0.16,0.604,0.308,0.831,0.437c0.226,0.133,0.426,0.198,0.608,0.198
		C181.057,190.717,181.279,190.584,181.422,190.322 M193.783,189.396c0.725,0,1.372,0.119,1.937,0.364
		c0.564,0.244,1.044,0.586,1.435,1.034c0.396,0.444,0.693,0.973,0.893,1.586c0.2,0.612,0.303,1.288,0.303,2.025h-9.829
		c0.218-1.567,0.763-2.799,1.643-3.682C191.043,189.838,192.252,189.396,193.783,189.396 M193.711,187.061
		c-1.306,0-2.486,0.23-3.53,0.684c-1.049,0.463-1.932,1.088-2.661,1.893c-0.725,0.8-1.279,1.75-1.665,2.843
		c-0.387,1.098-0.582,2.271-0.582,3.53c0,1.556,0.219,2.938,0.645,4.137c0.432,1.199,1.025,2.207,1.794,3.021
		c0.764,0.816,1.675,1.435,2.729,1.856c1.052,0.422,2.202,0.63,3.45,0.63c0.654,0,1.316-0.053,1.98-0.169
		c0.667-0.111,1.312-0.28,1.937-0.507c0.622-0.226,1.209-0.516,1.755-0.865c0.55-0.352,1.017-0.764,1.412-1.24l-0.892-1.158
		c-0.143-0.201-0.347-0.303-0.604-0.303c-0.204,0-0.444,0.092-0.725,0.275c-0.279,0.188-0.626,0.383-1.044,0.596
		c-0.418,0.219-0.914,0.418-1.493,0.6c-0.572,0.187-1.261,0.275-2.057,0.275c-0.858,0-1.631-0.138-2.319-0.417
		c-0.693-0.28-1.289-0.702-1.786-1.265c-0.501-0.564-0.892-1.271-1.177-2.114c-0.284-0.844-0.441-1.834-0.466-2.976h12.024
		c0.298,0,0.501-0.085,0.608-0.249c0.105-0.17,0.159-0.497,0.159-0.999c0-1.284-0.187-2.426-0.564-3.434
		c-0.373-0.999-0.892-1.848-1.559-2.532c-0.666-0.679-1.456-1.204-2.372-1.568C195.795,187.242,194.796,187.061,193.711,187.061
		 M208.788,179.146h-3.177v26.261h3.177V179.146z M217.92,179.146h-3.177v26.261h3.177V179.146z M234.369,193.764h5.512
		c1.893,0,3.306,0.383,4.238,1.15c0.934,0.764,1.398,1.812,1.398,3.127c0,0.679-0.106,1.301-0.32,1.865
		c-0.213,0.564-0.55,1.053-1.008,1.462c-0.457,0.409-1.039,0.728-1.75,0.954c-0.705,0.223-1.555,0.338-2.539,0.338h-5.53
		L234.369,193.764L234.369,193.764z M234.369,191.304v-8.72h4.69c1.901,0,3.31,0.352,4.212,1.053c0.9,0.702,1.359,1.803,1.359,3.3
		c0,0.64-0.117,1.231-0.342,1.772c-0.227,0.542-0.572,1.003-1.045,1.381c-0.471,0.383-1.062,0.679-1.771,0.893
		c-0.715,0.213-1.559,0.319-2.537,0.319h-4.566V191.304z M230.903,205.406h9.048c1.431,0,2.695-0.174,3.812-0.523
		c1.109-0.351,2.047-0.848,2.815-1.492c0.764-0.64,1.351-1.408,1.75-2.297c0.396-0.893,0.596-1.879,0.596-2.959
		c0-1.595-0.476-2.879-1.425-3.855c-0.951-0.974-2.363-1.644-4.229-2.012c0.809-0.249,1.514-0.572,2.113-0.964
		c0.6-0.391,1.102-0.836,1.497-1.338c0.399-0.497,0.698-1.039,0.892-1.621c0.196-0.582,0.294-1.19,0.294-1.82
		c0-1.03-0.173-1.963-0.524-2.789c-0.351-0.826-0.892-1.524-1.621-2.097c-0.732-0.569-1.664-1.008-2.803-1.315
		c-1.137-0.311-2.488-0.466-4.06-0.466h-8.155L230.903,205.406L230.903,205.406z M260.717,189.396c0.725,0,1.369,0.119,1.937,0.364
		c0.564,0.244,1.044,0.586,1.435,1.034c0.391,0.444,0.688,0.973,0.893,1.586c0.199,0.612,0.303,1.288,0.303,2.025h-9.83
		c0.214-1.567,0.764-2.799,1.644-3.682C257.977,189.838,259.184,189.396,260.717,189.396 M260.645,187.061
		c-1.311,0-2.486,0.23-3.535,0.684c-1.045,0.463-1.932,1.088-2.656,1.893c-0.725,0.8-1.279,1.75-1.665,2.843
		c-0.386,1.098-0.581,2.271-0.581,3.53c0,1.556,0.213,2.938,0.645,4.137c0.426,1.199,1.021,2.207,1.793,3.021
		c0.764,0.816,1.674,1.435,2.727,1.856s2.198,0.63,3.451,0.63c0.652,0,1.315-0.053,1.98-0.169c0.666-0.111,1.311-0.28,1.936-0.507
		c0.623-0.226,1.209-0.516,1.755-0.865c0.546-0.352,1.018-0.764,1.408-1.24l-0.89-1.158c-0.143-0.201-0.346-0.303-0.607-0.303
		c-0.201,0-0.444,0.092-0.725,0.275c-0.276,0.188-0.626,0.383-1.04,0.596c-0.421,0.219-0.915,0.418-1.492,0.6
		c-0.577,0.187-1.263,0.275-2.062,0.275c-0.857,0-1.631-0.138-2.319-0.417c-0.693-0.28-1.284-0.702-1.781-1.265
		c-0.502-0.564-0.892-1.271-1.183-2.114c-0.283-0.844-0.436-1.834-0.462-2.976h12.024c0.297,0,0.502-0.085,0.607-0.249
		c0.103-0.17,0.16-0.497,0.16-0.999c0-1.284-0.186-2.426-0.564-3.434c-0.373-0.999-0.892-1.848-1.559-2.532
		c-0.666-0.679-1.456-1.204-2.371-1.568C262.725,187.242,261.73,187.061,260.645,187.061 M278.751,203.088
		c-0.737,0-1.391-0.124-1.958-0.373c-0.572-0.25-1.057-0.645-1.449-1.188c-0.391-0.542-0.688-1.23-0.889-2.069
		c-0.209-0.836-0.306-1.844-0.306-3.02c0-2.222,0.453-3.936,1.354-5.135c0.901-1.2,2.203-1.799,3.892-1.799
		c0.843,0,1.612,0.155,2.31,0.471c0.693,0.315,1.338,0.865,1.919,1.647v8.736c-0.652,0.871-1.372,1.541-2.149,2.017
		C280.691,202.853,279.785,203.088,278.751,203.088 M284.906,205.406h1.893v-26.261h-3.175v10.017
		c-0.622-0.676-1.318-1.2-2.105-1.578c-0.786-0.373-1.733-0.56-2.838-0.56c-1.222,0-2.319,0.24-3.283,0.72
		c-0.964,0.484-1.781,1.146-2.452,1.99c-0.676,0.843-1.186,1.839-1.541,2.984c-0.359,1.146-0.538,2.385-0.538,3.718
		c0,1.497,0.159,2.825,0.479,3.975c0.32,1.155,0.783,2.118,1.377,2.887c0.596,0.778,1.311,1.359,2.158,1.759
		c0.844,0.396,1.781,0.597,2.816,0.597c1.287,0,2.426-0.28,3.416-0.844c0.994-0.569,1.879-1.319,2.652-2.257l0.283,2.195
		C284.17,205.189,284.453,205.406,284.906,205.406 M292.845,205.406h3.194v-15.404h5.121V187.7h-5.229v-1.657
		c0-0.772,0.085-1.42,0.258-1.941c0.174-0.523,0.417-0.945,0.741-1.265c0.319-0.325,0.706-0.556,1.151-0.698
		c0.443-0.143,0.941-0.213,1.488-0.213h0.555c0.342,0,0.613-0.021,0.799-0.07c0.191-0.049,0.293-0.191,0.307-0.432l0.066-1.585
		c-0.688-0.235-1.434-0.355-2.246-0.355c-0.95,0-1.803,0.143-2.568,0.426c-0.759,0.284-1.412,0.706-1.95,1.258
		c-0.543,0.555-0.96,1.23-1.253,2.035c-0.289,0.805-0.436,1.719-0.436,2.753v1.745h-2.853v1.302c0,0.239,0.08,0.422,0.24,0.545
		c0.155,0.124,0.363,0.219,0.612,0.276l2,0.23L292.845,205.406L292.845,205.406z M311.469,203.176c-0.906,0-1.688-0.155-2.354-0.463
		c-0.667-0.311-1.227-0.75-1.67-1.328c-0.443-0.576-0.777-1.288-0.999-2.132c-0.218-0.844-0.329-1.799-0.329-2.869
		c0-1.071,0.111-2.031,0.329-2.879c0.223-0.854,0.556-1.568,0.999-2.149c0.443-0.582,1.003-1.025,1.67-1.338
		c0.666-0.306,1.448-0.462,2.354-0.462c1.785,0,3.118,0.599,3.993,1.798c0.88,1.204,1.323,2.879,1.323,5.028
		c0,2.141-0.443,3.807-1.323,5.002C314.587,202.582,313.254,203.176,311.469,203.176 M311.469,187.061
		c-1.319,0-2.514,0.218-3.58,0.657c-1.062,0.443-1.967,1.066-2.719,1.875c-0.751,0.81-1.323,1.786-1.732,2.932
		c-0.4,1.146-0.604,2.431-0.604,3.844c0,1.425,0.204,2.709,0.604,3.851c0.409,1.142,0.981,2.113,1.732,2.922
		c0.752,0.81,1.657,1.431,2.719,1.866c1.066,0.432,2.261,0.652,3.58,0.652c1.318,0,2.515-0.223,3.576-0.652
		c1.066-0.436,1.973-1.057,2.709-1.866c0.746-0.809,1.315-1.78,1.716-2.922c0.399-1.142,0.599-2.426,0.599-3.851
		c0-1.413-0.199-2.697-0.599-3.844c-0.4-1.146-0.97-2.122-1.716-2.932c-0.736-0.809-1.643-1.43-2.709-1.875
		C313.983,187.278,312.789,187.061,311.469,187.061 M323.994,205.406h3.172v-11.5c0.502-1.227,1.12-2.154,1.866-2.799
		c0.741-0.645,1.67-0.964,2.771-0.964c0.618,0,1.103,0.058,1.449,0.169c0.342,0.116,0.599,0.174,0.764,0.174
		c0.288,0,0.47-0.15,0.555-0.448l0.409-2.372c-0.342-0.199-0.72-0.359-1.119-0.471c-0.409-0.116-0.857-0.169-1.359-0.169
		c-1.227,0-2.292,0.355-3.203,1.062c-0.906,0.705-1.675,1.687-2.293,2.949l-0.213-2.816c-0.049-0.324-0.138-0.546-0.267-0.679
		c-0.133-0.129-0.368-0.196-0.715-0.196h-1.817V205.406z M344.934,203.088c-0.736,0-1.391-0.124-1.958-0.373
		c-0.574-0.25-1.052-0.645-1.449-1.188c-0.39-0.542-0.688-1.23-0.889-2.069c-0.204-0.836-0.308-1.844-0.308-3.02
		c0-2.222,0.453-3.936,1.359-5.135c0.901-1.2,2.198-1.799,3.887-1.799c0.844,0,1.612,0.155,2.31,0.471
		c0.698,0.315,1.338,0.865,1.92,1.647v8.736c-0.652,0.871-1.372,1.541-2.15,2.017C346.88,202.853,345.969,203.088,344.934,203.088
		 M351.089,205.406h1.893v-26.261h-3.176v10.017c-0.618-0.676-1.319-1.2-2.106-1.578c-0.785-0.373-1.732-0.56-2.838-0.56
		c-1.221,0-2.318,0.24-3.283,0.72c-0.959,0.484-1.781,1.146-2.452,1.99c-0.671,0.843-1.185,1.839-1.541,2.984
		c-0.359,1.146-0.538,2.385-0.538,3.718c0,1.497,0.16,2.825,0.484,3.975c0.32,1.155,0.778,2.118,1.372,2.887
		c0.596,0.778,1.315,1.359,2.159,1.759c0.844,0.396,1.786,0.597,2.816,0.597c1.287,0,2.425-0.28,3.416-0.844
		c0.996-0.569,1.879-1.319,2.651-2.257l0.284,2.195C350.353,205.189,350.636,205.406,351.089,205.406 M217.454,228.002
		c0.013,0.613,0.19,1.084,0.528,1.408c0.342,0.32,0.809,0.479,1.398,0.479c0.383,0,0.764-0.07,1.146-0.223
		c0.383-0.15,0.719-0.356,1.013-0.618l-0.342-0.772c-0.032-0.058-0.058-0.097-0.085-0.12c-0.026-0.022-0.066-0.037-0.115-0.037
		c-0.051,0-0.103,0.022-0.166,0.066c-0.062,0.044-0.133,0.098-0.223,0.15c-0.089,0.053-0.195,0.106-0.319,0.15
		c-0.119,0.045-0.257,0.067-0.417,0.067c-0.249,0-0.443-0.07-0.591-0.223c-0.144-0.146-0.214-0.378-0.214-0.688l0.006-0.084
		l0.017-0.191l0.036-0.363l0.07-0.604l0.555-4.548h2.443l0.138-1.178h-2.435l0.399-3.189h-0.857c-0.097,0-0.177,0.031-0.245,0.09
		c-0.07,0.058-0.111,0.133-0.138,0.223l-0.688,2.861l-1.422,0.191c-0.01,0.065-0.012,0.138-0.021,0.208l-0.031,0.218l-0.022,0.188
		l-0.009,0.111c0,0.097,0.026,0.168,0.08,0.213c0.053,0.043,0.115,0.065,0.195,0.065h1.03l-0.574,4.634
		c-0.036,0.283-0.065,0.516-0.085,0.692l-0.039,0.431l-0.018,0.25L217.454,228.002z M225.916,228.521
		c-0.938,0-1.408-0.729-1.408-2.195c0-0.418,0.049-0.826,0.147-1.227c0.097-0.395,0.23-0.773,0.404-1.124
		c0.177-0.351,0.383-0.676,0.628-0.969c0.244-0.298,0.516-0.551,0.816-0.764c0.298-0.208,0.617-0.378,0.959-0.493
		c0.338-0.12,0.693-0.176,1.057-0.176h0.387c0.133,0,0.266,0.053,0.399,0.159l-0.391,3.126c-0.174,0.538-0.368,1.025-0.591,1.471
		c-0.223,0.449-0.463,0.836-0.72,1.156c-0.254,0.324-0.524,0.576-0.812,0.764C226.506,228.428,226.213,228.521,225.916,228.521
		 M229.9,229.747l1.105-8.946c-0.369-0.16-0.737-0.271-1.111-0.338c-0.373-0.066-0.763-0.097-1.154-0.097
		c-0.551,0-1.076,0.08-1.573,0.235c-0.501,0.155-0.968,0.373-1.403,0.656c-0.436,0.284-0.831,0.618-1.186,1.004
		c-0.352,0.386-0.652,0.812-0.906,1.27c-0.252,0.468-0.448,0.96-0.586,1.479c-0.139,0.52-0.204,1.053-0.204,1.6
		c0,0.523,0.058,0.991,0.175,1.396c0.115,0.405,0.28,0.747,0.488,1.022c0.213,0.279,0.466,0.489,0.764,0.631
		c0.298,0.143,0.631,0.213,0.996,0.213c0.334,0,0.656-0.059,0.969-0.178c0.311-0.119,0.608-0.293,0.893-0.516
		c0.28-0.223,0.55-0.484,0.804-0.799c0.249-0.316,0.484-0.667,0.706-1.053l-0.165,1.852c0,0.16,0.036,0.293,0.116,0.4
		c0.075,0.111,0.218,0.169,0.432,0.169H229.9z M235.815,216.293h-1.595l-1.656,13.454h1.606l0.542-4.42h0.311
		c0.17,0,0.293,0.022,0.369,0.062c0.074,0.044,0.154,0.124,0.234,0.245l2.354,3.793c0.068,0.111,0.143,0.195,0.228,0.244
		c0.08,0.049,0.187,0.075,0.325,0.075h1.395l-2.776-4.565c-0.067-0.116-0.134-0.223-0.2-0.32s-0.15-0.187-0.248-0.257
		c0.106-0.063,0.199-0.134,0.289-0.214c0.089-0.084,0.176-0.174,0.271-0.271l3.571-3.625H239.4c-0.146,0-0.268,0.032-0.356,0.095
		c-0.093,0.058-0.187,0.138-0.284,0.235l-3.061,3.131c-0.097,0.107-0.186,0.172-0.266,0.209c-0.08,0.031-0.178,0.049-0.303,0.049
		h-0.279L235.815,216.293z M244.992,217.59c0-0.156-0.031-0.308-0.094-0.453c-0.059-0.143-0.143-0.268-0.249-0.373
		c-0.106-0.107-0.231-0.188-0.364-0.253c-0.133-0.058-0.271-0.089-0.417-0.089c-0.143,0-0.278,0.031-0.412,0.097
		c-0.134,0.063-0.249,0.146-0.356,0.253c-0.102,0.106-0.186,0.23-0.244,0.373c-0.062,0.138-0.092,0.288-0.092,0.443
		c0,0.16,0.031,0.306,0.092,0.443c0.059,0.139,0.139,0.258,0.24,0.364s0.218,0.191,0.352,0.253c0.133,0.062,0.271,0.089,0.413,0.089
		c0.146,0,0.284-0.026,0.417-0.089c0.139-0.063,0.258-0.146,0.363-0.253c0.107-0.106,0.191-0.226,0.258-0.364
		C244.961,217.896,244.992,217.75,244.992,217.59 M244.379,220.494h-1.599l-1.114,9.253h1.599L244.379,220.494z M246.08,229.747
		h1.627l0.533-4.704c0.169-0.506,0.373-0.964,0.612-1.377c0.24-0.408,0.502-0.758,0.782-1.049c0.279-0.288,0.572-0.511,0.871-0.67
		c0.303-0.16,0.6-0.24,0.892-0.24c0.396,0,0.684,0.119,0.87,0.363c0.187,0.24,0.281,0.608,0.281,1.11
		c0,0.103-0.006,0.208-0.014,0.319l-0.031,0.352l-0.692,5.895h1.626l0.693-5.895c0.017-0.138,0.031-0.271,0.035-0.4
		c0.01-0.128,0.01-0.254,0.01-0.373c0-0.889-0.191-1.562-0.569-2.025c-0.382-0.465-0.915-0.697-1.604-0.697
		c-0.666,0-1.305,0.209-1.924,0.622c-0.617,0.414-1.172,1.03-1.669,1.845l0.138-1.791c0-0.363-0.182-0.546-0.545-0.546h-0.817
		L246.08,229.747z M259.154,225.572c-0.471,0-0.844-0.143-1.11-0.432c-0.263-0.283-0.396-0.703-0.396-1.248
		c0-0.311,0.044-0.608,0.133-0.896c0.09-0.284,0.219-0.538,0.387-0.764c0.169-0.227,0.383-0.41,0.63-0.543
		c0.249-0.133,0.542-0.199,0.87-0.199c0.475,0,0.848,0.139,1.119,0.412c0.271,0.271,0.404,0.676,0.404,1.213
		c0,0.297-0.043,0.596-0.133,0.889c-0.092,0.289-0.226,0.555-0.399,0.785c-0.173,0.235-0.386,0.427-0.636,0.569
		C259.775,225.501,259.486,225.572,259.154,225.572 M260.983,229.975c0,0.262-0.065,0.511-0.196,0.751
		c-0.133,0.235-0.314,0.443-0.55,0.622c-0.235,0.174-0.517,0.315-0.849,0.422c-0.334,0.106-0.697,0.16-1.102,0.16
		c-0.676,0-1.199-0.116-1.568-0.347c-0.368-0.23-0.551-0.564-0.551-1.003c0-0.209,0.059-0.41,0.173-0.6
		c0.116-0.191,0.294-0.359,0.528-0.506c0.24-0.148,0.543-0.262,0.906-0.352s0.795-0.133,1.297-0.133
		c0.254,0,0.528,0.012,0.816,0.035c0.289,0.027,0.596,0.062,0.929,0.119c0.049,0.121,0.085,0.25,0.119,0.387
		C260.969,229.667,260.983,229.814,260.983,229.975 M262.685,223.062c0-0.196-0.017-0.378-0.048-0.556
		c-0.031-0.172-0.071-0.336-0.129-0.492l1.155-0.203c0.116-0.018,0.199-0.07,0.257-0.155c0.059-0.085,0.093-0.177,0.107-0.28
		l0.07-0.543h-2.51c-0.498-0.315-1.076-0.475-1.746-0.475c-0.6,0-1.129,0.102-1.582,0.303c-0.457,0.203-0.84,0.465-1.15,0.799
		c-0.315,0.334-0.551,0.711-0.711,1.133c-0.159,0.421-0.239,0.852-0.239,1.291c0,0.449,0.065,0.844,0.199,1.183
		c0.134,0.337,0.315,0.618,0.546,0.843c0.23,0.229,0.502,0.396,0.809,0.512c0.311,0.116,0.64,0.178,0.996,0.178
		c0.363,0,0.688-0.045,0.972-0.129c0.288-0.09,0.55-0.209,0.778-0.369c-0.134,0.254-0.227,0.476-0.285,0.676
		c-0.057,0.204-0.084,0.4-0.084,0.587c0,0.146,0.013,0.284,0.049,0.409c0.031,0.124,0.075,0.24,0.129,0.359
		c-0.214-0.031-0.428-0.054-0.641-0.076c-0.218-0.017-0.436-0.025-0.656-0.025c-0.543,0-1.076,0.053-1.595,0.154
		s-0.986,0.267-1.392,0.494c-0.408,0.226-0.736,0.512-0.99,0.857c-0.249,0.347-0.373,0.764-0.373,1.244
		c0,0.342,0.084,0.653,0.254,0.938c0.164,0.283,0.404,0.523,0.711,0.724c0.307,0.199,0.678,0.359,1.114,0.466
		c0.436,0.111,0.919,0.164,1.448,0.164c0.666,0,1.266-0.089,1.795-0.262c0.533-0.174,0.986-0.408,1.359-0.705
		c0.369-0.298,0.658-0.64,0.858-1.025c0.204-0.386,0.303-0.795,0.303-1.23c0-0.352-0.063-0.657-0.187-0.916
		c-0.124-0.262-0.262-0.502-0.41-0.72c-0.15-0.218-0.287-0.431-0.412-0.64c-0.123-0.203-0.186-0.434-0.186-0.693
		c0-0.226,0.031-0.436,0.102-0.625c0.07-0.191,0.154-0.378,0.262-0.561c0.102-0.182,0.218-0.363,0.337-0.55
		c0.12-0.177,0.235-0.373,0.337-0.581c0.102-0.209,0.191-0.432,0.258-0.676C262.637,223.641,262.676,223.364,262.685,223.062
		 M270.492,232.505l6.25-12.011h-1.287c-0.09,0-0.182,0.032-0.266,0.09c-0.09,0.054-0.16,0.133-0.209,0.23l-2.923,5.838
		c-0.065,0.123-0.128,0.257-0.177,0.385c-0.054,0.134-0.107,0.262-0.16,0.391c-0.013-0.129-0.027-0.257-0.044-0.385
		c-0.022-0.129-0.044-0.258-0.075-0.383l-1.488-5.828c-0.026-0.098-0.07-0.178-0.133-0.24c-0.062-0.065-0.16-0.098-0.289-0.098
		h-1.342l2.395,8.707l-2.006,3.677h1.189C270.178,232.878,270.364,232.754,270.492,232.505 M280.346,228.605
		c-0.64,0-1.125-0.223-1.457-0.656c-0.334-0.432-0.496-1.079-0.496-1.928c0-0.576,0.07-1.132,0.208-1.66
		c0.138-0.533,0.337-1,0.591-1.403c0.258-0.404,0.569-0.729,0.928-0.969c0.364-0.24,0.773-0.359,1.223-0.359
		c0.635,0,1.119,0.218,1.451,0.649c0.338,0.432,0.502,1.075,0.502,1.927c0,0.577-0.066,1.132-0.209,1.66s-0.337,0.996-0.596,1.403
		c-0.254,0.4-0.564,0.729-0.933,0.969C281.193,228.482,280.789,228.605,280.346,228.605 M280.198,229.871
		c0.661,0,1.284-0.15,1.866-0.449c0.576-0.302,1.078-0.709,1.502-1.23c0.422-0.516,0.758-1.119,0.998-1.808
		c0.245-0.688,0.364-1.417,0.364-2.19c0-0.604-0.085-1.146-0.255-1.621c-0.172-0.479-0.408-0.885-0.715-1.212
		c-0.303-0.329-0.666-0.577-1.088-0.751c-0.416-0.172-0.879-0.262-1.386-0.262c-0.671,0-1.292,0.15-1.87,0.448
		c-0.577,0.298-1.076,0.706-1.498,1.222c-0.422,0.519-0.756,1.124-0.998,1.808c-0.245,0.688-0.369,1.422-0.369,2.202
		c0,0.609,0.09,1.151,0.258,1.627c0.169,0.475,0.408,0.875,0.715,1.203c0.303,0.33,0.666,0.582,1.083,0.756
		C279.23,229.787,279.691,229.871,280.198,229.871 M288.852,220.494h-1.617l-0.692,5.882c-0.022,0.138-0.031,0.276-0.039,0.399
		c-0.005,0.129-0.01,0.253-0.01,0.379c0,0.875,0.191,1.55,0.574,2.016c0.382,0.471,0.915,0.703,1.604,0.703
		c0.645,0,1.274-0.199,1.878-0.604c0.613-0.404,1.164-0.999,1.658-1.786l-0.066,0.737l-0.01,0.165l-0.031,0.337l-0.021,0.337
		l-0.01,0.164c0,0.178,0.054,0.311,0.156,0.396c0.102,0.084,0.248,0.128,0.438,0.128h0.804l1.115-9.253h-1.621l-0.572,4.816
		c-0.178,0.484-0.386,0.928-0.623,1.322c-0.234,0.396-0.492,0.732-0.772,1.014c-0.276,0.279-0.564,0.496-0.857,0.646
		c-0.298,0.151-0.587,0.229-0.862,0.229c-0.404,0-0.697-0.121-0.885-0.364c-0.187-0.245-0.275-0.618-0.275-1.114
		c0-0.103,0-0.209,0.01-0.32c0.009-0.111,0.021-0.228,0.035-0.347L288.852,220.494z M302.52,221.845h2.246l0.155-1.168h-2.31
		l0.111-0.844c0.049-0.396,0.129-0.729,0.244-1.003c0.117-0.276,0.258-0.498,0.432-0.662c0.17-0.172,0.363-0.293,0.586-0.373
		c0.228-0.07,0.468-0.111,0.729-0.111h0.204h0.177c0.111,0,0.199-0.013,0.271-0.031c0.07-0.021,0.111-0.075,0.124-0.164l0.154-0.832
		c-0.31-0.123-0.656-0.191-1.034-0.191c-0.444,0-0.862,0.076-1.243,0.223c-0.391,0.146-0.732,0.359-1.035,0.645
		c-0.303,0.284-0.551,0.627-0.751,1.04c-0.196,0.412-0.329,0.884-0.396,1.413l-0.111,0.892h-1.322l-0.076,0.715
		c0,0.103,0.031,0.183,0.093,0.235c0.063,0.053,0.146,0.098,0.249,0.129l0.912,0.115l-1.231,10.146h0.635
		c0.463,0,0.737-0.228,0.844-0.684l0.417-1.889L302.52,221.845z M308.049,220.494h-1.616l-0.698,5.882
		c-0.018,0.138-0.026,0.276-0.035,0.399c-0.006,0.129-0.01,0.253-0.01,0.379c0,0.875,0.191,1.55,0.572,2.016
		c0.378,0.471,0.915,0.703,1.604,0.703c0.645,0,1.271-0.199,1.879-0.604c0.612-0.404,1.158-0.999,1.657-1.786l-0.066,0.737
		l-0.009,0.165l-0.032,0.337l-0.021,0.337l-0.01,0.164c0,0.178,0.054,0.311,0.155,0.396c0.103,0.084,0.25,0.128,0.439,0.128h0.804
		l1.115-9.253h-1.616l-0.577,4.816c-0.178,0.484-0.386,0.928-0.623,1.322c-0.234,0.396-0.492,0.732-0.772,1.014
		c-0.276,0.279-0.56,0.496-0.857,0.646c-0.298,0.151-0.587,0.229-0.862,0.229c-0.405,0-0.698-0.121-0.885-0.364
		c-0.187-0.245-0.28-0.618-0.28-1.114c0-0.103,0.005-0.209,0.013-0.32l0.031-0.347L308.049,220.494z M315.241,229.747h1.59
		l0.511-4.296c0.311-1.168,0.697-2.039,1.16-2.617c0.463-0.572,0.991-0.862,1.58-0.862c0.267,0,0.546,0.058,0.831,0.173l0.294-1.563
		c-0.254-0.106-0.512-0.16-0.769-0.16c-0.543,0-1.057,0.23-1.546,0.693c-0.494,0.462-0.938,1.119-1.333,1.972l0.129-1.684
		l0.005-0.062l0.009-0.129l0.01-0.143l0.005-0.102c0-0.164-0.049-0.289-0.146-0.363c-0.097-0.08-0.23-0.119-0.399-0.119h-0.816
		L315.241,229.747z M322.64,228.002c0.013,0.613,0.187,1.084,0.528,1.408c0.342,0.32,0.81,0.479,1.398,0.479
		c0.386,0,0.769-0.07,1.146-0.223c0.383-0.15,0.72-0.356,1.013-0.618l-0.337-0.772c-0.031-0.058-0.062-0.097-0.09-0.12
		c-0.031-0.022-0.067-0.037-0.115-0.037c-0.049,0-0.103,0.022-0.165,0.066s-0.138,0.098-0.223,0.15
		c-0.089,0.053-0.196,0.106-0.315,0.15c-0.123,0.045-0.262,0.067-0.422,0.067c-0.249,0-0.448-0.07-0.591-0.223
		c-0.143-0.146-0.213-0.378-0.213-0.688l0.005-0.084l0.017-0.191l0.039-0.363c0.013-0.151,0.036-0.352,0.066-0.604l0.555-4.548
		h2.443l0.133-1.178h-2.43l0.404-3.189h-0.862c-0.098,0-0.178,0.031-0.245,0.09c-0.065,0.058-0.116,0.133-0.138,0.223l-0.684,2.861
		l-1.425,0.191c-0.005,0.065-0.013,0.138-0.027,0.208l-0.021,0.218l-0.026,0.188l-0.01,0.111c0,0.097,0.026,0.168,0.08,0.213
		c0.049,0.043,0.116,0.065,0.195,0.065h1.03l-0.572,4.634l-0.084,0.692l-0.04,0.431l-0.017,0.25
		C322.64,227.918,322.64,227.966,322.64,228.002 M328.352,229.747h1.626l0.596-4.904c0.173-0.476,0.383-0.906,0.618-1.294
		c0.239-0.385,0.493-0.719,0.768-0.99c0.276-0.276,0.561-0.49,0.849-0.635c0.288-0.151,0.569-0.227,0.844-0.227
		c0.399,0,0.692,0.124,0.879,0.363c0.187,0.25,0.281,0.618,0.281,1.12c0,0.103-0.005,0.208-0.015,0.319l-0.031,0.352l-0.692,5.895
		h1.626l0.692-5.895c0.018-0.138,0.031-0.271,0.036-0.404c0.005-0.129,0.01-0.258,0.01-0.378c0-0.884-0.187-1.556-0.564-2.017
		c-0.378-0.465-0.919-0.697-1.617-0.697c-0.617,0-1.216,0.182-1.808,0.555c-0.586,0.363-1.119,0.911-1.604,1.631l0.759-6.25h-1.626
		L328.352,229.747z M342.753,221.534c0.239,0,0.448,0.036,0.622,0.097c0.165,0.068,0.311,0.148,0.412,0.24
		c0.107,0.098,0.183,0.209,0.235,0.33c0.049,0.115,0.071,0.23,0.071,0.342c0,0.217-0.049,0.426-0.146,0.625
		c-0.097,0.204-0.298,0.391-0.604,0.564c-0.303,0.174-0.736,0.334-1.306,0.484c-0.564,0.147-1.319,0.281-2.257,0.396
		c0.098-0.431,0.235-0.836,0.409-1.209c0.178-0.373,0.396-0.702,0.645-0.978c0.25-0.278,0.533-0.492,0.858-0.651
		C342.016,221.614,342.365,221.534,342.753,221.534 M345.547,222.477c0-0.223-0.054-0.463-0.16-0.71
		c-0.106-0.249-0.267-0.479-0.489-0.684c-0.218-0.209-0.502-0.378-0.839-0.511c-0.342-0.139-0.746-0.205-1.217-0.205
		c-0.489,0-0.954,0.08-1.386,0.23c-0.427,0.151-0.816,0.359-1.178,0.623c-0.355,0.267-0.676,0.582-0.95,0.947
		c-0.275,0.363-0.511,0.764-0.702,1.186c-0.196,0.426-0.337,0.879-0.439,1.35c-0.097,0.471-0.15,0.947-0.15,1.418
		c0,0.576,0.08,1.092,0.235,1.555c0.16,0.463,0.386,0.857,0.679,1.182c0.289,0.33,0.649,0.578,1.071,0.756
		c0.417,0.178,0.893,0.262,1.425,0.262c0.386,0,0.751-0.031,1.089-0.102c0.337-0.07,0.666-0.182,0.972-0.332
		c0.311-0.155,0.613-0.342,0.911-0.574c0.298-0.226,0.599-0.502,0.911-0.826l-0.405-0.502c-0.089-0.102-0.19-0.154-0.302-0.154
		c-0.098,0-0.191,0.031-0.289,0.094c-0.097,0.062-0.204,0.133-0.324,0.223l-0.378,0.293c-0.138,0.106-0.293,0.203-0.476,0.293
		c-0.177,0.09-0.382,0.16-0.612,0.223c-0.228,0.062-0.489,0.094-0.783,0.094c-0.715,0-1.252-0.217-1.608-0.645
		c-0.358-0.431-0.537-1.051-0.537-1.87v-0.196c0-0.062,0.004-0.128,0.009-0.195c1.209-0.124,2.193-0.284,2.964-0.484
		c0.764-0.201,1.367-0.436,1.808-0.711c0.438-0.266,0.741-0.573,0.901-0.91C345.467,223.25,345.547,222.879,345.547,222.477
		 M346.754,229.747h1.59l0.512-4.296c0.31-1.168,0.697-2.039,1.158-2.617c0.463-0.572,0.991-0.862,1.58-0.862
		c0.267,0,0.546,0.058,0.831,0.173l0.294-1.563c-0.258-0.106-0.512-0.16-0.769-0.16c-0.543,0-1.057,0.23-1.551,0.693
		c-0.489,0.462-0.933,1.119-1.328,1.972l0.129-1.684l0.005-0.062l0.009-0.129l0.01-0.143l0.005-0.102
		c0-0.164-0.049-0.289-0.146-0.363c-0.097-0.08-0.23-0.119-0.399-0.119h-0.816L346.754,229.747z"/>
</g>
</svg>
