<svg xmlns="http://www.w3.org/2000/svg" xmlns:xlink="http://www.w3.org/1999/xlink" id="Capa_1" x="0px" y="0px" viewBox="0 0 280 46" style="enable-background:new 0 0 280 46;" xml:space="preserve"><style type="text/css">	.st0{fill-rule:evenodd;clip-rule:evenodd;fill:#FFFFFF;}	.st1{fill:#FFFFFF;}</style><g>	<path class="st0" d="M32.9,26.7v18.2H7.6c-3.1,0-5.6-2.5-5.6-5.6V26.7H32.9z M32.9,18.9V25H2v-6.1H32.9z M32.9,11.1v6.1H2v-6.1  H32.9z M2,1.1h25.4c3.1,0,5.6,2.5,5.6,5.6v2.8H2V1.1z"></path>	<g>		<g>			<path class="st1" d="M63.2,26.3h-1.3c-0.2-0.9-0.7-1.8-1.5-2.8c-0.7-1-1.5-1.6-2.1-1.7c-0.3,0-0.8-0.1-1.2-0.1c-0.5,0-1,0-1.6,0    h-4v9.6h2.8c0.8,0,1.5-0.1,1.9-0.3c0.5-0.2,0.9-0.4,1.2-0.8c0.2-0.2,0.4-0.6,0.6-1.2c0.2-0.5,0.3-1.1,0.4-1.7h1.3v9.4h-1.3    c0-0.5-0.1-1.1-0.3-1.7c-0.2-0.6-0.4-1.1-0.6-1.4c-0.3-0.4-0.8-0.7-1.3-0.9c-0.5-0.2-1.1-0.2-1.8-0.2h-2.8v8.2    c0,0.4,0.1,0.7,0.2,1c0.1,0.3,0.4,0.5,0.8,0.7c0.2,0.1,0.5,0.2,1.1,0.3c0.6,0.1,1,0.2,1.3,0.2v1.2H44.5v-1.2    c0.3,0,0.8-0.1,1.3-0.1c0.6,0,0.9-0.1,1.1-0.2c0.3-0.1,0.6-0.4,0.7-0.6c0.2-0.3,0.2-0.6,0.2-1V23.8c0-0.4-0.1-0.7-0.2-1    c-0.1-0.3-0.4-0.5-0.8-0.7c-0.3-0.1-0.7-0.3-1.2-0.4c-0.5-0.1-0.9-0.2-1.2-0.2v-1.2h18.8V26.3z"></path>			<path class="st1" d="M81.7,35.3c0,2.7-0.9,5-2.7,6.7c-1.8,1.8-3.9,2.6-6.5,2.6c-2.6,0-4.8-0.9-6.6-2.7c-1.8-1.8-2.6-4-2.6-6.7    c0-2.7,0.9-5,2.7-6.8c1.8-1.8,4-2.7,6.5-2.7c2.6,0,4.8,0.9,6.6,2.7C80.8,30.3,81.7,32.6,81.7,35.3z M78.1,35.3    c0-5.4-1.9-8.2-5.6-8.2c-3.7,0-5.6,2.7-5.6,8.2c0,5.4,1.9,8.1,5.6,8.1c1.8,0,3.2-0.7,4.2-2.1C77.6,39.9,78.1,37.9,78.1,35.3z"></path>			<path class="st1" d="M101.5,44.3h-5.2c-1.8-2.8-3.9-5.5-6.1-8.1h-1.9v5.5c0,0.6,0.2,1,0.5,1.2c0.3,0.2,1.1,0.3,2.1,0.4v1.1h-8.4    v-1.1l1-0.1c1-0.1,1.5-0.6,1.5-1.4V29.1c0-0.6-0.1-0.9-0.4-1.1c-0.3-0.2-1-0.4-2.2-0.5v-1.1h9.2c1.9,0,3.4,0.4,4.6,1.1    c1.2,0.8,1.8,1.8,1.8,3.1c0,2.4-1.5,4-4.6,4.8c0.5,0.6,0.9,1.1,1.3,1.6c0.4,0.5,0.7,1,1,1.3l2.3,2.8c0.8,0.9,1.4,1.5,1.8,1.7    c0.5,0.2,1,0.3,1.6,0.3V44.3z M88.4,27.5v7.3h1.8c2.9,0,4.3-1.3,4.3-4c0-2.2-1.3-3.4-3.8-3.4H88.4z"></path>			<path class="st1" d="M120.2,27.4c-0.1,0-0.3,0-0.5,0.1c-1.3,0.1-2,0.5-2.3,1c-0.2,0.5-0.4,1.4-0.4,2.6v7.4c0,2-0.6,3.5-1.9,4.6    c-1.3,1.1-3,1.7-5.1,1.7c-2.3,0-4.1-0.5-5.4-1.4c-1.4-1-2-2.2-2-3.8V29.1c0-1-0.8-1.5-2.5-1.7v-1.1h8.3v1.1c-0.1,0-0.3,0-0.5,0.1    c-1,0.1-1.6,0.3-1.8,0.5c-0.2,0.3-0.3,0.6-0.3,1v9.6c0,3.1,1.6,4.6,4.8,4.6c1.5,0,2.7-0.4,3.7-1.3c0.9-0.8,1.4-1.9,1.4-3.3v-7.3    c0-1.6-0.2-2.5-0.5-2.9c-0.4-0.4-1.3-0.7-2.8-0.9v-1.1h8V27.4z"></path>			<path class="st1" d="M144.1,44.3h-8.8v-1.1c1.2-0.1,2-0.2,2.4-0.5c0.4-0.2,0.6-0.6,0.6-1.1V29.2h-0.2L131.6,44h-1l-6.1-14.9h-0.2    v10c0,1.3,0.1,2.2,0.2,2.7c0.2,0.5,0.6,0.8,1.4,1.1c0.8,0.2,1.3,0.3,1.5,0.3v1.1h-7.7v-1.1c1.3-0.1,2.2-0.4,2.5-0.9    c0.4-0.5,0.6-1.6,0.6-3.3v-8.8c0-1.8-1-2.7-3-2.8v-1.1h6.9l5.3,13.1l4.8-10.8c0.2-0.5,0.4-1.3,0.7-2.4h6.6v1.1    c-1,0.1-1.7,0.2-2,0.5s-0.6,0.6-0.6,1.1v12.6c0,0.7,0.3,1.1,0.8,1.3c0.5,0.2,1.1,0.3,1.8,0.3V44.3z"></path>			<path class="st1" d="M170.1,35.3c0,2.7-0.9,5-2.7,6.7c-1.8,1.8-3.9,2.6-6.5,2.6c-2.6,0-4.8-0.9-6.6-2.7c-1.8-1.8-2.6-4-2.6-6.7    c0-2.7,0.9-5,2.7-6.8c1.8-1.8,4-2.7,6.5-2.7c2.6,0,4.8,0.9,6.6,2.7C169.3,30.3,170.1,32.6,170.1,35.3z M166.6,35.3    c0-5.4-1.9-8.2-5.6-8.2c-3.7,0-5.6,2.7-5.6,8.2c0,5.4,1.9,8.1,5.6,8.1c1.8,0,3.2-0.7,4.2-2.1C166.1,39.9,166.6,37.9,166.6,35.3z"></path>			<path class="st1" d="M184.9,31c-0.2-0.8-0.6-1.5-1.1-2.1c-0.5-0.6-0.9-1-1.3-1.1c-0.4-0.2-1.3-0.2-2.7-0.2h-2.9v7h2.2    c1.7,0,2.7-1,2.9-2.9h1v7.2h-1c-0.2-2.1-1.2-3.1-2.9-3.1h-2.2v5.9c0,0.6,0.2,1,0.7,1.2c0.5,0.2,1.1,0.4,2,0.4v1.1h-8.6v-1.1    c1.4-0.1,2.2-0.3,2.4-0.5c0.2-0.2,0.3-0.6,0.3-1V29.1c0-0.6-0.2-1-0.6-1.2c-0.4-0.3-1.1-0.4-2.1-0.5v-1.1h15V31H184.9z"></path>			<path class="st1" d="M211.9,26.3h-1.3c-0.2-0.9-0.7-1.8-1.5-2.8c-0.7-1-1.5-1.6-2.1-1.7c-0.3,0-0.8-0.1-1.2-0.1c-0.5,0-1,0-1.6,0    h-4v9.6h2.8c0.8,0,1.5-0.1,1.9-0.3c0.5-0.2,0.9-0.4,1.2-0.8c0.2-0.2,0.4-0.6,0.6-1.2c0.2-0.5,0.3-1.1,0.4-1.7h1.3v9.4H207    c0-0.5-0.1-1.1-0.3-1.7c-0.2-0.6-0.4-1.1-0.6-1.4c-0.3-0.4-0.8-0.7-1.3-0.9c-0.5-0.2-1.1-0.2-1.8-0.2h-2.8v8.2    c0,0.4,0.1,0.7,0.2,1c0.1,0.3,0.4,0.5,0.8,0.7c0.2,0.1,0.5,0.2,1.1,0.3c0.6,0.1,1,0.2,1.3,0.2v1.2h-10.4v-1.2    c0.3,0,0.8-0.1,1.3-0.1c0.6,0,0.9-0.1,1.1-0.2c0.3-0.1,0.6-0.4,0.7-0.6c0.2-0.3,0.2-0.6,0.2-1V23.8c0-0.4-0.1-0.7-0.2-1    c-0.1-0.3-0.4-0.5-0.8-0.7c-0.3-0.1-0.7-0.3-1.2-0.4c-0.5-0.1-0.9-0.2-1.2-0.2v-1.2h18.8V26.3z"></path>			<path class="st1" d="M211.9,44.3v-1.1c1.3-0.1,2.1-0.2,2.4-0.4c0.3-0.2,0.5-0.5,0.5-1.1V29.1c0-0.5-0.2-0.8-0.5-1.1    c-0.3-0.2-1-0.4-1.9-0.6c-0.2,0-0.3,0-0.5-0.1v-1.1h8.9v1.1c-1.3,0.1-2.1,0.3-2.4,0.5c-0.3,0.2-0.5,0.6-0.5,1.1v12.7    c0,0.7,0.4,1.1,1.1,1.3c0.7,0.2,1.3,0.3,1.7,0.3v1.1H211.9z"></path>			<path class="st1" d="M240.7,44.3h-5.2c-1.8-2.8-3.9-5.5-6.1-8.1h-1.9v5.5c0,0.6,0.2,1,0.5,1.2s1.1,0.3,2.1,0.4v1.1h-8.4v-1.1    l1-0.1c1-0.1,1.5-0.6,1.5-1.4V29.1c0-0.6-0.1-0.9-0.4-1.1c-0.3-0.2-1-0.4-2.2-0.5v-1.1h9.2c1.9,0,3.4,0.4,4.6,1.1    c1.2,0.8,1.8,1.8,1.8,3.1c0,2.4-1.5,4-4.6,4.8c0.5,0.6,0.9,1.1,1.3,1.6c0.4,0.5,0.7,1,1,1.3l2.3,2.8c0.8,0.9,1.4,1.5,1.8,1.7    c0.5,0.2,1,0.3,1.6,0.3V44.3z M227.5,27.5v7.3h1.8c2.9,0,4.3-1.3,4.3-4c0-2.2-1.3-3.4-3.8-3.4H227.5z"></path>			<path class="st1" d="M263.8,44.3h-8.8v-1.1c1.2-0.1,2-0.2,2.4-0.5c0.4-0.2,0.6-0.6,0.6-1.1V29.2h-0.2L251.3,44h-1l-6.1-14.9h-0.2    v10c0,1.3,0.1,2.2,0.2,2.7c0.2,0.5,0.6,0.8,1.4,1.1c0.8,0.2,1.3,0.3,1.5,0.3v1.1h-7.7v-1.1c1.3-0.1,2.2-0.4,2.5-0.9    c0.4-0.5,0.6-1.6,0.6-3.3v-8.8c0-1.8-1-2.7-3-2.8v-1.1h6.9l5.3,13.1l4.8-10.8c0.2-0.5,0.4-1.3,0.7-2.4h6.6v1.1    c-1,0.1-1.7,0.2-2,0.5s-0.6,0.6-0.6,1.1v12.6c0,0.7,0.3,1.1,0.8,1.3c0.5,0.2,1.1,0.3,1.8,0.3V44.3z"></path>			<path class="st1" d="M266.8,43.4l-0.6,0.9h-1.2l-0.2-6.1h1.2c1.1,3.5,3,5.3,5.7,5.3c2.3,0,3.5-1,3.5-3c0-0.8-0.2-1.5-0.7-2    c-0.5-0.5-1.3-1-2.4-1.4c-1.8-0.6-3.1-1.2-4-1.6c-0.9-0.5-1.5-1.1-2-1.9c-0.5-0.8-0.7-1.7-0.7-2.7c0-1.4,0.6-2.6,1.7-3.5    c1.1-0.9,2.5-1.4,4.2-1.4c1.4,0,2.7,0.4,4.2,1.2l0.6-0.9h1.2l0.1,6h-1.2c-0.9-3.4-2.6-5.1-5-5.1c-0.9,0-1.6,0.2-2.1,0.7    s-0.8,1.2-0.8,2c0,0.9,0.2,1.5,0.7,1.9c0.5,0.4,1.6,0.9,3.2,1.5c2.4,0.8,4,1.6,4.8,2.6c0.8,1,1.2,2,1.2,3.3    c0,1.6-0.6,2.9-1.7,3.9c-1.1,1-2.6,1.5-4.4,1.5C270,44.7,268.3,44.2,266.8,43.4z"></path>		</g>		<g>			<path class="st1" d="M54.8,9.1h-3.8V8.6c0.5,0,0.9-0.1,1-0.2c0.2-0.1,0.2-0.3,0.2-0.5V2.7h-0.1L49.5,9h-0.4l-2.6-6.3h-0.1v4.3    c0,0.6,0,1,0.1,1.2c0.1,0.2,0.3,0.4,0.6,0.4c0.3,0.1,0.6,0.1,0.6,0.1v0.5h-3.3V8.6c0.6-0.1,0.9-0.2,1.1-0.4s0.2-0.7,0.2-1.4V3.1    c0-0.8-0.4-1.2-1.3-1.2V1.5h2.9l2.3,5.6l2-4.6c0.1-0.2,0.2-0.5,0.3-1h2.8v0.5c-0.4,0-0.7,0.1-0.9,0.2c-0.2,0.1-0.2,0.3-0.2,0.5V8    c0,0.3,0.1,0.5,0.3,0.5c0.2,0.1,0.5,0.1,0.8,0.1V9.1z"></path>			<path class="st1" d="M62,9.1h-6.8V8.6c0.2,0,0.4,0,0.7-0.1c0.3-0.1,0.4-0.3,0.4-0.6V2.6c0-0.2-0.1-0.4-0.2-0.5    c-0.1-0.1-0.4-0.2-0.8-0.2c-0.1,0-0.1,0-0.2,0V1.5h6.3v1.9h-0.5c-0.1-0.2-0.2-0.5-0.4-0.8s-0.4-0.5-0.6-0.5C59.9,2,59.5,2,59,2    h-1.3v3h0.8c0.3,0,0.6,0,0.7-0.1c0.2-0.1,0.3-0.2,0.4-0.4c0.1-0.2,0.2-0.5,0.2-0.7h0.5v3h-0.5c0-0.3-0.1-0.6-0.3-0.9    c-0.2-0.3-0.5-0.4-1.1-0.4h-0.8v2.2c0,0.5,0.1,0.7,0.2,0.9c0.1,0.1,0.5,0.2,1.2,0.2h0.4c0.6,0,1-0.1,1.2-0.2    c0.1-0.1,0.3-0.3,0.6-0.7c0.2-0.4,0.4-0.7,0.5-0.9h0.5L62,9.1z"></path>			<path class="st1" d="M72.5,9.1h-3.8V8.6c0.5,0,0.9-0.1,1-0.2C69.9,8.3,70,8.2,70,8V2.7h-0.1L67.1,9h-0.4l-2.6-6.3H64v4.3    c0,0.6,0,1,0.1,1.2c0.1,0.2,0.3,0.4,0.6,0.4c0.3,0.1,0.6,0.1,0.6,0.1v0.5h-3.3V8.6c0.6-0.1,0.9-0.2,1.1-0.4    c0.2-0.2,0.2-0.7,0.2-1.4V3.1c0-0.8-0.4-1.2-1.3-1.2V1.5H65l2.3,5.6l2-4.6c0.1-0.2,0.2-0.5,0.3-1h2.8v0.5c-0.4,0-0.7,0.1-0.9,0.2    c-0.2,0.1-0.2,0.3-0.2,0.5V8c0,0.3,0.1,0.5,0.3,0.5c0.2,0.1,0.5,0.1,0.8,0.1V9.1z"></path>			<path class="st1" d="M72.9,8.6C73.6,8.6,74,8.4,74,8V2.6c0-0.4-0.4-0.7-1.1-0.7V1.5h3.9c0.7,0,1.3,0.1,1.7,0.4    c0.5,0.3,0.7,0.7,0.7,1.2c0,0.9-0.7,1.6-2,1.9v0c0.8,0.1,1.4,0.3,1.8,0.7C79.5,6,79.7,6.5,79.7,7c0,0.6-0.3,1.1-0.8,1.5    c-0.6,0.4-1.2,0.6-2,0.6h-4V8.6z M76.1,4.8c1.1,0,1.7-0.5,1.7-1.6c0-0.9-0.5-1.3-1.5-1.3c-0.4,0-0.7,0-0.9,0v2.8H76.1z M75.4,5.3    v2.6c0,0.5,0.4,0.7,1.1,0.7c1.1,0,1.7-0.6,1.7-1.8c0-0.3,0-0.5-0.2-0.7c-0.1-0.2-0.3-0.4-0.6-0.6c-0.3-0.2-0.8-0.2-1.4-0.2    L75.4,5.3z"></path>			<path class="st1" d="M86.9,9.1h-6.8V8.6c0.2,0,0.4,0,0.7-0.1c0.3-0.1,0.4-0.3,0.4-0.6V2.6c0-0.2-0.1-0.4-0.2-0.5    C81,2.1,80.7,2,80.3,1.9c-0.1,0-0.1,0-0.2,0V1.5h6.3v1.9H86c-0.1-0.2-0.2-0.5-0.4-0.8c-0.2-0.3-0.4-0.5-0.6-0.5    C84.8,2,84.4,2,83.9,2h-1.3v3h0.8c0.3,0,0.6,0,0.7-0.1c0.2-0.1,0.3-0.2,0.4-0.4c0.1-0.2,0.2-0.5,0.2-0.7h0.5v3h-0.5    c0-0.3-0.1-0.6-0.3-0.9c-0.2-0.3-0.5-0.4-1.1-0.4h-0.8v2.2c0,0.5,0.1,0.7,0.2,0.9C83,8.5,83.4,8.6,84,8.6h0.4    c0.6,0,1-0.1,1.2-0.2c0.1-0.1,0.3-0.3,0.6-0.7c0.2-0.4,0.4-0.7,0.5-0.9h0.5L86.9,9.1z"></path>			<path class="st1" d="M95.3,9.1h-2.2c-0.8-1.2-1.6-2.3-2.6-3.5h-0.8V8c0,0.2,0.1,0.4,0.2,0.5c0.1,0.1,0.4,0.1,0.9,0.2v0.5h-3.6    V8.6l0.4-0.1c0.4,0,0.6-0.2,0.6-0.6V2.6c0-0.2-0.1-0.4-0.2-0.5C88,2,87.7,2,87.2,1.9V1.5h3.9c0.8,0,1.5,0.2,2,0.5    c0.5,0.3,0.8,0.8,0.8,1.3c0,1-0.7,1.7-2,2.1c0.2,0.2,0.4,0.5,0.5,0.7c0.2,0.2,0.3,0.4,0.4,0.6l1,1.2c0.3,0.4,0.6,0.6,0.8,0.7    c0.2,0.1,0.4,0.1,0.7,0.1V9.1z M89.7,2v3.1h0.7c1.2,0,1.8-0.6,1.8-1.7c0-1-0.5-1.4-1.6-1.4H89.7z"></path>			<path class="st1" d="M105.8,5.3c0,1.2-0.4,2.1-1.1,2.9c-0.8,0.7-1.7,1.1-2.8,1.1c-1.1,0-2.1-0.4-2.8-1.1    c-0.8-0.8-1.1-1.7-1.1-2.9c0-1.2,0.4-2.1,1.1-2.9c0.8-0.8,1.7-1.1,2.8-1.1c1.1,0,2.1,0.4,2.8,1.1C105.4,3.2,105.8,4.1,105.8,5.3z     M104.2,5.3c0-2.3-0.8-3.5-2.4-3.5c-1.6,0-2.4,1.2-2.4,3.5c0,2.3,0.8,3.4,2.4,3.4c0.8,0,1.4-0.3,1.8-0.9    C104,7.2,104.2,6.4,104.2,5.3z"></path>			<path class="st1" d="M112,3.4c-0.1-0.3-0.3-0.6-0.5-0.9c-0.2-0.3-0.4-0.4-0.6-0.5C110.8,2,110.4,2,109.8,2h-1.2v3h0.9    c0.7,0,1.2-0.4,1.3-1.3h0.4v3.1h-0.4c-0.1-0.9-0.5-1.3-1.3-1.3h-0.9V8c0,0.3,0.1,0.4,0.3,0.5c0.2,0.1,0.5,0.2,0.8,0.2v0.5h-3.7    V8.6c0.6,0,0.9-0.1,1-0.2c0.1-0.1,0.1-0.2,0.1-0.4V2.6c0-0.2-0.1-0.4-0.3-0.5c-0.2-0.1-0.5-0.2-0.9-0.2V1.5h6.4v2H112z"></path>			<path class="st1" d="M122.3,3.6h-0.5c-0.1-0.5-0.3-0.9-0.5-1.1c-0.2-0.2-0.4-0.4-0.5-0.4C120.7,2,120.3,2,119.7,2h-0.3v6    c0,0.4,0.2,0.6,0.7,0.6l0.6,0.1v0.5h-4V8.6c0.2,0,0.4,0,0.8-0.1c0.3-0.1,0.5-0.3,0.5-0.6V2h-0.3c-0.7,0-1.1,0-1.2,0.1    c-0.1,0.1-0.2,0.2-0.4,0.4c-0.2,0.2-0.4,0.6-0.5,1.1H115V1.5h7.3V3.6z"></path>			<path class="st1" d="M127.4,9.1V8.6l0.4,0c0.5,0,0.7-0.2,0.7-0.6V5.4h-3.8V8c0,0.2,0.1,0.4,0.2,0.5c0.2,0.1,0.4,0.2,0.8,0.2v0.5    h-3.5V8.6l0.4,0c0.3,0,0.5-0.1,0.6-0.2c0.1-0.1,0.1-0.2,0.1-0.4V2.6c0-0.4-0.4-0.7-1.1-0.7V1.5h3.5v0.5c-0.4,0-0.7,0.1-0.8,0.2    c-0.2,0.1-0.2,0.3-0.2,0.5v2.3h3.8V2.6c0-0.4-0.4-0.7-1.1-0.7V1.5h3.5v0.5c-0.7,0-1.1,0.3-1.1,0.7V8c0,0.2,0.1,0.4,0.3,0.5    c0.2,0.1,0.4,0.2,0.8,0.2v0.5H127.4z"></path>			<path class="st1" d="M138.2,9.1h-6.8V8.6c0.2,0,0.4,0,0.7-0.1c0.3-0.1,0.4-0.3,0.4-0.6V2.6c0-0.2-0.1-0.4-0.2-0.5    c-0.1-0.1-0.4-0.2-0.8-0.2c-0.1,0-0.1,0-0.2,0V1.5h6.3v1.9h-0.5c-0.1-0.2-0.2-0.5-0.4-0.8s-0.4-0.5-0.6-0.5    c-0.2-0.1-0.5-0.1-1-0.1H134v3h0.8c0.3,0,0.6,0,0.7-0.1c0.2-0.1,0.3-0.2,0.4-0.4c0.1-0.2,0.2-0.5,0.2-0.7h0.5v3h-0.5    c0-0.3-0.1-0.6-0.3-0.9c-0.2-0.3-0.5-0.4-1.1-0.4H134v2.2c0,0.5,0.1,0.7,0.2,0.9c0.1,0.1,0.5,0.2,1.2,0.2h0.4    c0.6,0,1-0.1,1.2-0.2c0.1-0.1,0.3-0.3,0.6-0.7c0.2-0.4,0.4-0.7,0.5-0.9h0.5L138.2,9.1z"></path>		</g>	</g></g></svg>